<mxfile host="app.diagrams.net" modified="2023-10-10T22:29:20.312Z" agent="Mozilla/5.0 (Windows NT 10.0; Win64; x64) AppleWebKit/537.36 (KHTML, like Gecko) Chrome/117.0.0.0 Safari/537.36" etag="vcTw4EXG4w-uT60GwQSy" version="21.8.2" type="github">
  <diagram name="Page-1" id="CPNXC50euRKfNB6obnDd">
    <mxGraphModel dx="4146" dy="3174" grid="0" gridSize="10" guides="1" tooltips="1" connect="1" arrows="1" fold="1" page="0" pageScale="1" pageWidth="850" pageHeight="1100" math="0" shadow="0">
      <root>
        <mxCell id="0" />
        <mxCell id="1" parent="0" />
        <mxCell id="QzPQM97rYg2r_5IAiYFt-97" value="" style="rounded=1;whiteSpace=wrap;html=1;fillColor=none;" parent="1" vertex="1">
          <mxGeometry x="-810" y="-2336" width="963" height="611" as="geometry" />
        </mxCell>
        <mxCell id="QzPQM97rYg2r_5IAiYFt-6" value="" style="shape=actor;whiteSpace=wrap;html=1;" parent="1" vertex="1">
          <mxGeometry x="-1113.5" y="-2089" width="40" height="60" as="geometry" />
        </mxCell>
        <mxCell id="QzPQM97rYg2r_5IAiYFt-7" value="Équipe 1" style="text;html=1;align=center;verticalAlign=middle;resizable=0;points=[];autosize=1;strokeColor=none;fillColor=none;" parent="1" vertex="1">
          <mxGeometry x="-1599" y="-2029" width="65" height="26" as="geometry" />
        </mxCell>
        <mxCell id="QzPQM97rYg2r_5IAiYFt-8" value="" style="shape=actor;whiteSpace=wrap;html=1;" parent="1" vertex="1">
          <mxGeometry x="-1586.5" y="-2089" width="40" height="60" as="geometry" />
        </mxCell>
        <mxCell id="QzPQM97rYg2r_5IAiYFt-9" value="Jonatan" style="text;html=1;align=center;verticalAlign=middle;resizable=0;points=[];autosize=1;strokeColor=none;fillColor=none;" parent="1" vertex="1">
          <mxGeometry x="-1361.5" y="-2029" width="61" height="26" as="geometry" />
        </mxCell>
        <mxCell id="QzPQM97rYg2r_5IAiYFt-10" value="" style="shape=actor;whiteSpace=wrap;html=1;" parent="1" vertex="1">
          <mxGeometry x="-1351" y="-2089" width="40" height="60" as="geometry" />
        </mxCell>
        <mxCell id="QzPQM97rYg2r_5IAiYFt-11" value="Client" style="text;html=1;align=center;verticalAlign=middle;resizable=0;points=[];autosize=1;strokeColor=none;fillColor=none;" parent="1" vertex="1">
          <mxGeometry x="-1118" y="-2029" width="49" height="26" as="geometry" />
        </mxCell>
        <mxCell id="QzPQM97rYg2r_5IAiYFt-14" value="" style="endArrow=classic;html=1;rounded=0;" parent="1" edge="1">
          <mxGeometry width="50" height="50" relative="1" as="geometry">
            <mxPoint x="-1299" y="-2054" as="sourcePoint" />
            <mxPoint x="-1125" y="-2054" as="targetPoint" />
          </mxGeometry>
        </mxCell>
        <mxCell id="QzPQM97rYg2r_5IAiYFt-15" value="" style="endArrow=classic;html=1;rounded=0;" parent="1" edge="1">
          <mxGeometry width="50" height="50" relative="1" as="geometry">
            <mxPoint x="-1535.5" y="-2053" as="sourcePoint" />
            <mxPoint x="-1361.5" y="-2053" as="targetPoint" />
          </mxGeometry>
        </mxCell>
        <mxCell id="QzPQM97rYg2r_5IAiYFt-16" value="" style="sketch=0;outlineConnect=0;fontColor=#232F3E;gradientColor=none;fillColor=#232F3D;strokeColor=none;dashed=0;verticalLabelPosition=bottom;verticalAlign=top;align=center;html=1;fontSize=12;fontStyle=0;aspect=fixed;pointerEvents=1;shape=mxgraph.aws4.email_2;" parent="1" vertex="1">
          <mxGeometry x="-1480" y="-2118" width="38.2" height="24" as="geometry" />
        </mxCell>
        <mxCell id="QzPQM97rYg2r_5IAiYFt-17" value="MIO" style="text;html=1;align=center;verticalAlign=middle;resizable=0;points=[];autosize=1;strokeColor=none;fillColor=none;" parent="1" vertex="1">
          <mxGeometry x="-1481.4" y="-2096" width="41" height="26" as="geometry" />
        </mxCell>
        <mxCell id="QzPQM97rYg2r_5IAiYFt-18" value="" style="shape=actor;whiteSpace=wrap;html=1;" parent="1" vertex="1">
          <mxGeometry x="-1351" y="-1909" width="40" height="60" as="geometry" />
        </mxCell>
        <mxCell id="QzPQM97rYg2r_5IAiYFt-19" value="Jacques" style="text;html=1;align=center;verticalAlign=middle;resizable=0;points=[];autosize=1;strokeColor=none;fillColor=none;" parent="1" vertex="1">
          <mxGeometry x="-1362.5" y="-1849" width="63" height="26" as="geometry" />
        </mxCell>
        <mxCell id="QzPQM97rYg2r_5IAiYFt-20" value="" style="endArrow=classic;html=1;rounded=0;exitX=0.484;exitY=1.298;exitDx=0;exitDy=0;exitPerimeter=0;" parent="1" source="QzPQM97rYg2r_5IAiYFt-9" edge="1">
          <mxGeometry width="50" height="50" relative="1" as="geometry">
            <mxPoint x="-1412" y="-1954" as="sourcePoint" />
            <mxPoint x="-1332" y="-1917" as="targetPoint" />
          </mxGeometry>
        </mxCell>
        <mxCell id="QzPQM97rYg2r_5IAiYFt-23" value="" style="html=1;verticalLabelPosition=bottom;align=center;labelBackgroundColor=#ffffff;verticalAlign=top;strokeWidth=1;strokeColor=#000000;shadow=0;dashed=0;shape=mxgraph.ios7.icons.home;" parent="1" vertex="1">
          <mxGeometry x="-1146.5" y="-1244" width="149" height="78" as="geometry" />
        </mxCell>
        <mxCell id="QzPQM97rYg2r_5IAiYFt-24" value="" style="rounded=0;whiteSpace=wrap;html=1;" parent="1" vertex="1">
          <mxGeometry x="-1488" y="-1536" width="218" height="710" as="geometry" />
        </mxCell>
        <mxCell id="QzPQM97rYg2r_5IAiYFt-25" value="GMT Autos" style="text;html=1;align=center;verticalAlign=middle;resizable=0;points=[];autosize=1;strokeColor=none;fillColor=none;" parent="1" vertex="1">
          <mxGeometry x="-1110.5" y="-1166" width="78" height="26" as="geometry" />
        </mxCell>
        <mxCell id="QzPQM97rYg2r_5IAiYFt-36" style="rounded=0;orthogonalLoop=1;jettySize=auto;html=1;entryX=0;entryY=0.5;entryDx=0;entryDy=0;endArrow=none;endFill=0;" parent="1" source="QzPQM97rYg2r_5IAiYFt-27" target="QzPQM97rYg2r_5IAiYFt-33" edge="1">
          <mxGeometry relative="1" as="geometry" />
        </mxCell>
        <mxCell id="QzPQM97rYg2r_5IAiYFt-37" style="rounded=0;orthogonalLoop=1;jettySize=auto;html=1;entryX=0;entryY=0.5;entryDx=0;entryDy=0;endArrow=none;endFill=0;" parent="1" source="QzPQM97rYg2r_5IAiYFt-27" target="QzPQM97rYg2r_5IAiYFt-32" edge="1">
          <mxGeometry relative="1" as="geometry" />
        </mxCell>
        <mxCell id="QzPQM97rYg2r_5IAiYFt-38" style="rounded=0;orthogonalLoop=1;jettySize=auto;html=1;entryX=0;entryY=0.5;entryDx=0;entryDy=0;endArrow=none;endFill=0;" parent="1" source="QzPQM97rYg2r_5IAiYFt-27" target="QzPQM97rYg2r_5IAiYFt-28" edge="1">
          <mxGeometry relative="1" as="geometry" />
        </mxCell>
        <mxCell id="QzPQM97rYg2r_5IAiYFt-39" style="rounded=0;orthogonalLoop=1;jettySize=auto;html=1;entryX=0;entryY=0.5;entryDx=0;entryDy=0;endArrow=none;endFill=0;" parent="1" source="QzPQM97rYg2r_5IAiYFt-27" target="QzPQM97rYg2r_5IAiYFt-29" edge="1">
          <mxGeometry relative="1" as="geometry" />
        </mxCell>
        <mxCell id="QzPQM97rYg2r_5IAiYFt-40" style="rounded=0;orthogonalLoop=1;jettySize=auto;html=1;entryX=0;entryY=0.5;entryDx=0;entryDy=0;endArrow=none;endFill=0;" parent="1" source="QzPQM97rYg2r_5IAiYFt-27" target="QzPQM97rYg2r_5IAiYFt-30" edge="1">
          <mxGeometry relative="1" as="geometry" />
        </mxCell>
        <mxCell id="QzPQM97rYg2r_5IAiYFt-41" style="rounded=0;orthogonalLoop=1;jettySize=auto;html=1;entryX=0;entryY=0.5;entryDx=0;entryDy=0;endArrow=none;endFill=0;" parent="1" source="QzPQM97rYg2r_5IAiYFt-27" target="QzPQM97rYg2r_5IAiYFt-31" edge="1">
          <mxGeometry relative="1" as="geometry" />
        </mxCell>
        <mxCell id="QzPQM97rYg2r_5IAiYFt-27" value="Client" style="shape=umlActor;verticalLabelPosition=bottom;verticalAlign=top;html=1;" parent="1" vertex="1">
          <mxGeometry x="-1664.5" y="-1233" width="30" height="60" as="geometry" />
        </mxCell>
        <mxCell id="QzPQM97rYg2r_5IAiYFt-28" value="Filtrer voiture" style="ellipse;whiteSpace=wrap;html=1;" parent="1" vertex="1">
          <mxGeometry x="-1449" y="-1238" width="140" height="70" as="geometry" />
        </mxCell>
        <mxCell id="QzPQM97rYg2r_5IAiYFt-29" value="Calculatrice d&#39;interet" style="ellipse;whiteSpace=wrap;html=1;" parent="1" vertex="1">
          <mxGeometry x="-1451" y="-1133" width="140" height="70" as="geometry" />
        </mxCell>
        <mxCell id="QzPQM97rYg2r_5IAiYFt-30" value="Contactez nous" style="ellipse;whiteSpace=wrap;html=1;" parent="1" vertex="1">
          <mxGeometry x="-1449" y="-1028" width="140" height="70" as="geometry" />
        </mxCell>
        <mxCell id="QzPQM97rYg2r_5IAiYFt-31" value="Voir Services" style="ellipse;whiteSpace=wrap;html=1;" parent="1" vertex="1">
          <mxGeometry x="-1451" y="-923" width="140" height="70" as="geometry" />
        </mxCell>
        <mxCell id="QzPQM97rYg2r_5IAiYFt-32" value="Rechercher voiture" style="ellipse;whiteSpace=wrap;html=1;" parent="1" vertex="1">
          <mxGeometry x="-1451" y="-1346" width="140" height="70" as="geometry" />
        </mxCell>
        <mxCell id="QzPQM97rYg2r_5IAiYFt-33" value="Sélectionner la voiture" style="ellipse;whiteSpace=wrap;html=1;" parent="1" vertex="1">
          <mxGeometry x="-1451" y="-1452" width="140" height="70" as="geometry" />
        </mxCell>
        <mxCell id="QzPQM97rYg2r_5IAiYFt-34" value="&amp;lt;&amp;lt; Services &amp;gt;&amp;gt;" style="text;html=1;strokeColor=none;fillColor=none;align=center;verticalAlign=middle;whiteSpace=wrap;rounded=0;" parent="1" vertex="1">
          <mxGeometry x="-1481.5" y="-1527" width="90" height="30" as="geometry" />
        </mxCell>
        <mxCell id="QzPQM97rYg2r_5IAiYFt-35" value="&lt;b&gt;Site web GMT Autos&lt;/b&gt;" style="text;html=1;strokeColor=none;fillColor=none;align=center;verticalAlign=middle;whiteSpace=wrap;rounded=0;" parent="1" vertex="1">
          <mxGeometry x="-1481.5" y="-1497" width="120" height="30" as="geometry" />
        </mxCell>
        <mxCell id="QzPQM97rYg2r_5IAiYFt-48" style="rounded=0;orthogonalLoop=1;jettySize=auto;html=1;entryX=1;entryY=0.5;entryDx=0;entryDy=0;endArrow=none;endFill=0;" parent="1" source="QzPQM97rYg2r_5IAiYFt-23" target="QzPQM97rYg2r_5IAiYFt-29" edge="1">
          <mxGeometry relative="1" as="geometry" />
        </mxCell>
        <mxCell id="QzPQM97rYg2r_5IAiYFt-49" style="rounded=0;orthogonalLoop=1;jettySize=auto;html=1;entryX=1;entryY=0.5;entryDx=0;entryDy=0;endArrow=none;endFill=0;" parent="1" source="QzPQM97rYg2r_5IAiYFt-23" target="QzPQM97rYg2r_5IAiYFt-30" edge="1">
          <mxGeometry relative="1" as="geometry" />
        </mxCell>
        <mxCell id="QzPQM97rYg2r_5IAiYFt-50" style="rounded=0;orthogonalLoop=1;jettySize=auto;html=1;entryX=1;entryY=0.5;entryDx=0;entryDy=0;endArrow=none;endFill=0;" parent="1" source="QzPQM97rYg2r_5IAiYFt-23" target="QzPQM97rYg2r_5IAiYFt-31" edge="1">
          <mxGeometry relative="1" as="geometry" />
        </mxCell>
        <mxCell id="QzPQM97rYg2r_5IAiYFt-51" style="rounded=0;orthogonalLoop=1;jettySize=auto;html=1;endArrow=none;endFill=0;" parent="1" source="QzPQM97rYg2r_5IAiYFt-23" target="QzPQM97rYg2r_5IAiYFt-28" edge="1">
          <mxGeometry relative="1" as="geometry" />
        </mxCell>
        <mxCell id="QzPQM97rYg2r_5IAiYFt-43" style="rounded=0;orthogonalLoop=1;jettySize=auto;html=1;entryX=1;entryY=0.5;entryDx=0;entryDy=0;endArrow=none;endFill=0;" parent="1" source="QzPQM97rYg2r_5IAiYFt-23" target="QzPQM97rYg2r_5IAiYFt-32" edge="1">
          <mxGeometry relative="1" as="geometry" />
        </mxCell>
        <mxCell id="QzPQM97rYg2r_5IAiYFt-42" style="rounded=0;orthogonalLoop=1;jettySize=auto;html=1;entryX=1;entryY=0.5;entryDx=0;entryDy=0;endArrow=none;endFill=0;" parent="1" source="QzPQM97rYg2r_5IAiYFt-23" target="QzPQM97rYg2r_5IAiYFt-33" edge="1">
          <mxGeometry relative="1" as="geometry" />
        </mxCell>
        <mxCell id="QzPQM97rYg2r_5IAiYFt-52" value="" style="html=1;verticalLabelPosition=bottom;align=center;labelBackgroundColor=#ffffff;verticalAlign=top;strokeWidth=1;strokeColor=#000000;shadow=0;dashed=0;shape=mxgraph.ios7.icons.home;" parent="1" vertex="1">
          <mxGeometry x="-1192.5" y="-431" width="149" height="78" as="geometry" />
        </mxCell>
        <mxCell id="QzPQM97rYg2r_5IAiYFt-53" value="" style="rounded=0;whiteSpace=wrap;html=1;" parent="1" vertex="1">
          <mxGeometry x="-1540" y="-661" width="218" height="501" as="geometry" />
        </mxCell>
        <mxCell id="QzPQM97rYg2r_5IAiYFt-54" value="GMT" style="text;html=1;align=center;verticalAlign=middle;resizable=0;points=[];autosize=1;strokeColor=none;fillColor=none;" parent="1" vertex="1">
          <mxGeometry x="-1140.5" y="-353" width="45" height="26" as="geometry" />
        </mxCell>
        <mxCell id="QzPQM97rYg2r_5IAiYFt-55" style="rounded=0;orthogonalLoop=1;jettySize=auto;html=1;entryX=0;entryY=0.5;entryDx=0;entryDy=0;endArrow=none;endFill=0;" parent="1" source="QzPQM97rYg2r_5IAiYFt-61" target="QzPQM97rYg2r_5IAiYFt-67" edge="1">
          <mxGeometry relative="1" as="geometry" />
        </mxCell>
        <mxCell id="QzPQM97rYg2r_5IAiYFt-56" style="rounded=0;orthogonalLoop=1;jettySize=auto;html=1;entryX=0;entryY=0.5;entryDx=0;entryDy=0;endArrow=none;endFill=0;" parent="1" source="QzPQM97rYg2r_5IAiYFt-61" target="QzPQM97rYg2r_5IAiYFt-66" edge="1">
          <mxGeometry relative="1" as="geometry" />
        </mxCell>
        <mxCell id="QzPQM97rYg2r_5IAiYFt-57" style="rounded=0;orthogonalLoop=1;jettySize=auto;html=1;entryX=0;entryY=0.5;entryDx=0;entryDy=0;endArrow=none;endFill=0;" parent="1" source="QzPQM97rYg2r_5IAiYFt-61" target="QzPQM97rYg2r_5IAiYFt-62" edge="1">
          <mxGeometry relative="1" as="geometry" />
        </mxCell>
        <mxCell id="QzPQM97rYg2r_5IAiYFt-58" style="rounded=0;orthogonalLoop=1;jettySize=auto;html=1;entryX=0;entryY=0.5;entryDx=0;entryDy=0;endArrow=none;endFill=0;" parent="1" source="QzPQM97rYg2r_5IAiYFt-61" target="QzPQM97rYg2r_5IAiYFt-63" edge="1">
          <mxGeometry relative="1" as="geometry" />
        </mxCell>
        <mxCell id="QzPQM97rYg2r_5IAiYFt-61" value="Client" style="shape=umlActor;verticalLabelPosition=bottom;verticalAlign=top;html=1;" parent="1" vertex="1">
          <mxGeometry x="-1714.5" y="-414" width="30" height="60" as="geometry" />
        </mxCell>
        <mxCell id="QzPQM97rYg2r_5IAiYFt-62" value="Calculatrice d&#39;interet" style="ellipse;whiteSpace=wrap;html=1;" parent="1" vertex="1">
          <mxGeometry x="-1501" y="-363" width="140" height="70" as="geometry" />
        </mxCell>
        <mxCell id="QzPQM97rYg2r_5IAiYFt-63" value="Contactez nous" style="ellipse;whiteSpace=wrap;html=1;" parent="1" vertex="1">
          <mxGeometry x="-1503" y="-258" width="140" height="70" as="geometry" />
        </mxCell>
        <mxCell id="QzPQM97rYg2r_5IAiYFt-66" value="Lien Carfax" style="ellipse;whiteSpace=wrap;html=1;" parent="1" vertex="1">
          <mxGeometry x="-1503" y="-471" width="140" height="70" as="geometry" />
        </mxCell>
        <mxCell id="QzPQM97rYg2r_5IAiYFt-67" value="Informations sur la voiture" style="ellipse;whiteSpace=wrap;html=1;" parent="1" vertex="1">
          <mxGeometry x="-1503" y="-577" width="140" height="70" as="geometry" />
        </mxCell>
        <mxCell id="QzPQM97rYg2r_5IAiYFt-68" value="&amp;lt;&amp;lt; Services &amp;gt;&amp;gt;" style="text;html=1;strokeColor=none;fillColor=none;align=center;verticalAlign=middle;whiteSpace=wrap;rounded=0;" parent="1" vertex="1">
          <mxGeometry x="-1533.5" y="-652" width="90" height="30" as="geometry" />
        </mxCell>
        <mxCell id="QzPQM97rYg2r_5IAiYFt-69" value="&lt;b&gt;Sélectionner la voiture&lt;/b&gt;" style="text;html=1;strokeColor=none;fillColor=none;align=center;verticalAlign=middle;whiteSpace=wrap;rounded=0;" parent="1" vertex="1">
          <mxGeometry x="-1533.5" y="-622" width="148.5" height="30" as="geometry" />
        </mxCell>
        <mxCell id="QzPQM97rYg2r_5IAiYFt-70" style="rounded=0;orthogonalLoop=1;jettySize=auto;html=1;entryX=1;entryY=0.5;entryDx=0;entryDy=0;endArrow=none;endFill=0;" parent="1" source="QzPQM97rYg2r_5IAiYFt-52" target="QzPQM97rYg2r_5IAiYFt-63" edge="1">
          <mxGeometry relative="1" as="geometry" />
        </mxCell>
        <mxCell id="QzPQM97rYg2r_5IAiYFt-73" style="rounded=0;orthogonalLoop=1;jettySize=auto;html=1;endArrow=none;endFill=0;" parent="1" source="QzPQM97rYg2r_5IAiYFt-52" target="QzPQM97rYg2r_5IAiYFt-62" edge="1">
          <mxGeometry relative="1" as="geometry" />
        </mxCell>
        <mxCell id="QzPQM97rYg2r_5IAiYFt-74" style="rounded=0;orthogonalLoop=1;jettySize=auto;html=1;entryX=1;entryY=0.5;entryDx=0;entryDy=0;endArrow=none;endFill=0;" parent="1" source="QzPQM97rYg2r_5IAiYFt-52" target="QzPQM97rYg2r_5IAiYFt-66" edge="1">
          <mxGeometry relative="1" as="geometry" />
        </mxCell>
        <mxCell id="QzPQM97rYg2r_5IAiYFt-75" style="rounded=0;orthogonalLoop=1;jettySize=auto;html=1;entryX=1;entryY=0.5;entryDx=0;entryDy=0;endArrow=none;endFill=0;" parent="1" source="QzPQM97rYg2r_5IAiYFt-52" target="QzPQM97rYg2r_5IAiYFt-67" edge="1">
          <mxGeometry relative="1" as="geometry" />
        </mxCell>
        <mxCell id="QzPQM97rYg2r_5IAiYFt-126" style="edgeStyle=orthogonalEdgeStyle;rounded=0;orthogonalLoop=1;jettySize=auto;html=1;entryX=0;entryY=0.5;entryDx=0;entryDy=0;endArrow=openThin;endFill=0;" parent="1" source="QzPQM97rYg2r_5IAiYFt-98" target="QzPQM97rYg2r_5IAiYFt-125" edge="1">
          <mxGeometry relative="1" as="geometry" />
        </mxCell>
        <mxCell id="QzPQM97rYg2r_5IAiYFt-98" value="" style="ellipse;fillStyle=solid;fillColor=#000000;" parent="1" vertex="1">
          <mxGeometry x="-688.5" y="-2012.5" width="24" height="24" as="geometry" />
        </mxCell>
        <mxCell id="QzPQM97rYg2r_5IAiYFt-103" value="" style="rhombus;whiteSpace=wrap;html=1;" parent="1" vertex="1">
          <mxGeometry x="-181.5" y="-2010.5" width="30" height="20" as="geometry" />
        </mxCell>
        <mxCell id="QzPQM97rYg2r_5IAiYFt-106" value="Contactez nous" style="html=1;align=center;verticalAlign=top;rounded=1;absoluteArcSize=1;arcSize=10;dashed=0;whiteSpace=wrap;" parent="1" vertex="1">
          <mxGeometry x="-66.5" y="-2020.5" width="140" height="40" as="geometry" />
        </mxCell>
        <mxCell id="QzPQM97rYg2r_5IAiYFt-137" style="edgeStyle=orthogonalEdgeStyle;rounded=0;orthogonalLoop=1;jettySize=auto;html=1;endArrow=classicThin;endFill=1;" parent="1" source="QzPQM97rYg2r_5IAiYFt-109" target="QzPQM97rYg2r_5IAiYFt-117" edge="1">
          <mxGeometry relative="1" as="geometry" />
        </mxCell>
        <mxCell id="QzPQM97rYg2r_5IAiYFt-109" value="Choisir une voiture de la liste" style="html=1;align=center;verticalAlign=top;rounded=1;absoluteArcSize=1;arcSize=10;dashed=0;whiteSpace=wrap;" parent="1" vertex="1">
          <mxGeometry x="-648.5" y="-1812" width="140" height="40" as="geometry" />
        </mxCell>
        <mxCell id="QzPQM97rYg2r_5IAiYFt-110" value="" style="ellipse;html=1;shape=endState;fillColor=strokeColor;" parent="1" vertex="1">
          <mxGeometry x="-7.5" y="-2234.5" width="27" height="27" as="geometry" />
        </mxCell>
        <mxCell id="QzPQM97rYg2r_5IAiYFt-111" value="" style="endArrow=openThin;html=1;rounded=0;endFill=0;exitX=0.5;exitY=0;exitDx=0;exitDy=0;entryX=0.5;entryY=1;entryDx=0;entryDy=0;" parent="1" source="QzPQM97rYg2r_5IAiYFt-106" target="QzPQM97rYg2r_5IAiYFt-110" edge="1">
          <mxGeometry width="50" height="50" relative="1" as="geometry">
            <mxPoint x="-326.5" y="-1644.5" as="sourcePoint" />
            <mxPoint x="-159.5" y="-1644.5" as="targetPoint" />
          </mxGeometry>
        </mxCell>
        <mxCell id="QzPQM97rYg2r_5IAiYFt-117" value="Consulter la voiture" style="html=1;align=center;verticalAlign=top;rounded=1;absoluteArcSize=1;arcSize=10;dashed=0;whiteSpace=wrap;" parent="1" vertex="1">
          <mxGeometry x="-398.5" y="-2020.5" width="140" height="40" as="geometry" />
        </mxCell>
        <mxCell id="QzPQM97rYg2r_5IAiYFt-119" value="Contactez nous" style="html=1;align=center;verticalAlign=top;rounded=1;absoluteArcSize=1;arcSize=10;dashed=0;whiteSpace=wrap;" parent="1" vertex="1">
          <mxGeometry x="-648.5" y="-2241" width="140" height="40" as="geometry" />
        </mxCell>
        <mxCell id="QzPQM97rYg2r_5IAiYFt-120" value="Rechercher voiture" style="html=1;align=center;verticalAlign=top;rounded=1;absoluteArcSize=1;arcSize=10;dashed=0;whiteSpace=wrap;" parent="1" vertex="1">
          <mxGeometry x="-772.5" y="-1926" width="140" height="40" as="geometry" />
        </mxCell>
        <mxCell id="QzPQM97rYg2r_5IAiYFt-121" value="Filtrer les annonces" style="html=1;align=center;verticalAlign=top;rounded=1;absoluteArcSize=1;arcSize=10;dashed=0;whiteSpace=wrap;" parent="1" vertex="1">
          <mxGeometry x="-523.5" y="-1926" width="140" height="40" as="geometry" />
        </mxCell>
        <mxCell id="QzPQM97rYg2r_5IAiYFt-122" value="Calculatrice d&#39;interet" style="html=1;align=center;verticalAlign=top;rounded=1;absoluteArcSize=1;arcSize=10;dashed=0;whiteSpace=wrap;" parent="1" vertex="1">
          <mxGeometry x="-523.5" y="-2136" width="140" height="40" as="geometry" />
        </mxCell>
        <mxCell id="QzPQM97rYg2r_5IAiYFt-123" value="Voir Services" style="html=1;align=center;verticalAlign=top;rounded=1;absoluteArcSize=1;arcSize=10;dashed=0;whiteSpace=wrap;" parent="1" vertex="1">
          <mxGeometry x="-772.5" y="-2136" width="140" height="40" as="geometry" />
        </mxCell>
        <mxCell id="QzPQM97rYg2r_5IAiYFt-127" style="edgeStyle=orthogonalEdgeStyle;rounded=0;orthogonalLoop=1;jettySize=auto;html=1;entryX=0;entryY=0.5;entryDx=0;entryDy=0;endArrow=classicThin;endFill=1;" parent="1" source="QzPQM97rYg2r_5IAiYFt-125" target="QzPQM97rYg2r_5IAiYFt-117" edge="1">
          <mxGeometry relative="1" as="geometry" />
        </mxCell>
        <mxCell id="QzPQM97rYg2r_5IAiYFt-125" value="" style="rhombus;whiteSpace=wrap;html=1;" parent="1" vertex="1">
          <mxGeometry x="-593.5" y="-2010.5" width="30" height="20" as="geometry" />
        </mxCell>
        <mxCell id="QzPQM97rYg2r_5IAiYFt-129" style="edgeStyle=orthogonalEdgeStyle;rounded=0;orthogonalLoop=1;jettySize=auto;html=1;entryX=0.5;entryY=1;entryDx=0;entryDy=0;endArrow=classicThin;endFill=1;exitX=0.5;exitY=0;exitDx=0;exitDy=0;" parent="1" source="QzPQM97rYg2r_5IAiYFt-125" target="QzPQM97rYg2r_5IAiYFt-119" edge="1">
          <mxGeometry relative="1" as="geometry">
            <mxPoint x="-553.5" y="-1990" as="sourcePoint" />
            <mxPoint x="-468.5" y="-1990" as="targetPoint" />
          </mxGeometry>
        </mxCell>
        <mxCell id="QzPQM97rYg2r_5IAiYFt-130" style="rounded=0;orthogonalLoop=1;jettySize=auto;html=1;entryX=0.25;entryY=1;entryDx=0;entryDy=0;endArrow=classicThin;endFill=1;exitX=1;exitY=0;exitDx=0;exitDy=0;" parent="1" source="QzPQM97rYg2r_5IAiYFt-125" target="QzPQM97rYg2r_5IAiYFt-122" edge="1">
          <mxGeometry relative="1" as="geometry">
            <mxPoint x="-553.5" y="-1990" as="sourcePoint" />
            <mxPoint x="-468.5" y="-1990" as="targetPoint" />
          </mxGeometry>
        </mxCell>
        <mxCell id="QzPQM97rYg2r_5IAiYFt-131" style="rounded=0;orthogonalLoop=1;jettySize=auto;html=1;entryX=0.75;entryY=1;entryDx=0;entryDy=0;endArrow=classicThin;endFill=1;exitX=0;exitY=0;exitDx=0;exitDy=0;" parent="1" source="QzPQM97rYg2r_5IAiYFt-125" target="QzPQM97rYg2r_5IAiYFt-123" edge="1">
          <mxGeometry relative="1" as="geometry">
            <mxPoint x="-560.5" y="-1995" as="sourcePoint" />
            <mxPoint x="-478.5" y="-2086" as="targetPoint" />
          </mxGeometry>
        </mxCell>
        <mxCell id="QzPQM97rYg2r_5IAiYFt-133" style="rounded=0;orthogonalLoop=1;jettySize=auto;html=1;entryX=0.75;entryY=0;entryDx=0;entryDy=0;endArrow=classicThin;endFill=1;exitX=0;exitY=1;exitDx=0;exitDy=0;" parent="1" source="QzPQM97rYg2r_5IAiYFt-125" target="QzPQM97rYg2r_5IAiYFt-120" edge="1">
          <mxGeometry relative="1" as="geometry">
            <mxPoint x="-575.5" y="-1995" as="sourcePoint" />
            <mxPoint x="-657.5" y="-2086" as="targetPoint" />
          </mxGeometry>
        </mxCell>
        <mxCell id="QzPQM97rYg2r_5IAiYFt-134" style="rounded=0;orthogonalLoop=1;jettySize=auto;html=1;entryX=0.25;entryY=0;entryDx=0;entryDy=0;endArrow=classicThin;endFill=1;exitX=1;exitY=1;exitDx=0;exitDy=0;" parent="1" source="QzPQM97rYg2r_5IAiYFt-125" target="QzPQM97rYg2r_5IAiYFt-121" edge="1">
          <mxGeometry relative="1" as="geometry">
            <mxPoint x="-575.5" y="-1985" as="sourcePoint" />
            <mxPoint x="-657.5" y="-1916" as="targetPoint" />
          </mxGeometry>
        </mxCell>
        <mxCell id="QzPQM97rYg2r_5IAiYFt-135" style="rounded=0;orthogonalLoop=1;jettySize=auto;html=1;entryX=0.25;entryY=0;entryDx=0;entryDy=0;endArrow=classicThin;endFill=1;exitX=0.75;exitY=1;exitDx=0;exitDy=0;" parent="1" source="QzPQM97rYg2r_5IAiYFt-120" target="QzPQM97rYg2r_5IAiYFt-109" edge="1">
          <mxGeometry relative="1" as="geometry">
            <mxPoint x="-575.5" y="-1985" as="sourcePoint" />
            <mxPoint x="-657.5" y="-1916" as="targetPoint" />
          </mxGeometry>
        </mxCell>
        <mxCell id="QzPQM97rYg2r_5IAiYFt-136" style="rounded=0;orthogonalLoop=1;jettySize=auto;html=1;entryX=0.75;entryY=0;entryDx=0;entryDy=0;endArrow=classicThin;endFill=1;exitX=0.25;exitY=1;exitDx=0;exitDy=0;" parent="1" source="QzPQM97rYg2r_5IAiYFt-121" target="QzPQM97rYg2r_5IAiYFt-109" edge="1">
          <mxGeometry relative="1" as="geometry">
            <mxPoint x="-657.5" y="-1876" as="sourcePoint" />
            <mxPoint x="-603.5" y="-1802" as="targetPoint" />
          </mxGeometry>
        </mxCell>
        <mxCell id="QzPQM97rYg2r_5IAiYFt-140" style="edgeStyle=orthogonalEdgeStyle;rounded=0;orthogonalLoop=1;jettySize=auto;html=1;entryX=0;entryY=0.5;entryDx=0;entryDy=0;endArrow=openThin;endFill=0;exitX=1;exitY=0.5;exitDx=0;exitDy=0;" parent="1" source="QzPQM97rYg2r_5IAiYFt-117" target="QzPQM97rYg2r_5IAiYFt-103" edge="1">
          <mxGeometry relative="1" as="geometry">
            <mxPoint x="-654.5" y="-1990" as="sourcePoint" />
            <mxPoint x="-583.5" y="-1990" as="targetPoint" />
          </mxGeometry>
        </mxCell>
        <mxCell id="QzPQM97rYg2r_5IAiYFt-142" value="Informations sur la voiture" style="html=1;align=center;verticalAlign=top;rounded=1;absoluteArcSize=1;arcSize=10;dashed=0;whiteSpace=wrap;" parent="1" vertex="1">
          <mxGeometry x="-236.5" y="-2122" width="140" height="40" as="geometry" />
        </mxCell>
        <mxCell id="QzPQM97rYg2r_5IAiYFt-143" style="rounded=0;orthogonalLoop=1;jettySize=auto;html=1;entryX=0.5;entryY=1;entryDx=0;entryDy=0;endArrow=classicThin;endFill=1;exitX=0.5;exitY=0;exitDx=0;exitDy=0;" parent="1" source="QzPQM97rYg2r_5IAiYFt-103" target="QzPQM97rYg2r_5IAiYFt-142" edge="1">
          <mxGeometry relative="1" as="geometry">
            <mxPoint x="-560.5" y="-1995" as="sourcePoint" />
            <mxPoint x="-478.5" y="-2086" as="targetPoint" />
          </mxGeometry>
        </mxCell>
        <mxCell id="QzPQM97rYg2r_5IAiYFt-144" value="Lien Carfax" style="html=1;align=center;verticalAlign=top;rounded=1;absoluteArcSize=1;arcSize=10;dashed=0;whiteSpace=wrap;" parent="1" vertex="1">
          <mxGeometry x="-236.5" y="-1895" width="140" height="40" as="geometry" />
        </mxCell>
        <mxCell id="QzPQM97rYg2r_5IAiYFt-145" style="rounded=0;orthogonalLoop=1;jettySize=auto;html=1;endArrow=classicThin;endFill=1;exitX=0.5;exitY=1;exitDx=0;exitDy=0;" parent="1" source="QzPQM97rYg2r_5IAiYFt-103" target="QzPQM97rYg2r_5IAiYFt-144" edge="1">
          <mxGeometry relative="1" as="geometry">
            <mxPoint x="-156.5" y="-2000" as="sourcePoint" />
            <mxPoint x="-156.5" y="-2072" as="targetPoint" />
          </mxGeometry>
        </mxCell>
        <mxCell id="QzPQM97rYg2r_5IAiYFt-146" style="rounded=0;orthogonalLoop=1;jettySize=auto;html=1;entryX=0.75;entryY=1;entryDx=0;entryDy=0;endArrow=classicThin;endFill=1;exitX=0;exitY=0;exitDx=0;exitDy=0;" parent="1" source="QzPQM97rYg2r_5IAiYFt-103" target="QzPQM97rYg2r_5IAiYFt-122" edge="1">
          <mxGeometry relative="1" as="geometry">
            <mxPoint x="-156.5" y="-2000" as="sourcePoint" />
            <mxPoint x="-156.5" y="-2072" as="targetPoint" />
          </mxGeometry>
        </mxCell>
        <mxCell id="QzPQM97rYg2r_5IAiYFt-147" style="rounded=0;orthogonalLoop=1;jettySize=auto;html=1;endArrow=classicThin;endFill=1;exitX=1;exitY=0.5;exitDx=0;exitDy=0;entryX=0;entryY=0.5;entryDx=0;entryDy=0;" parent="1" source="QzPQM97rYg2r_5IAiYFt-103" target="QzPQM97rYg2r_5IAiYFt-106" edge="1">
          <mxGeometry relative="1" as="geometry">
            <mxPoint x="-156.5" y="-1980" as="sourcePoint" />
            <mxPoint x="-156.5" y="-1885" as="targetPoint" />
          </mxGeometry>
        </mxCell>
        <mxCell id="QzPQM97rYg2r_5IAiYFt-148" value="" style="endArrow=openThin;html=1;rounded=0;endFill=0;exitX=1;exitY=0.5;exitDx=0;exitDy=0;entryX=1;entryY=0.5;entryDx=0;entryDy=0;edgeStyle=orthogonalEdgeStyle;" parent="1" source="QzPQM97rYg2r_5IAiYFt-144" target="QzPQM97rYg2r_5IAiYFt-110" edge="1">
          <mxGeometry width="50" height="50" relative="1" as="geometry">
            <mxPoint x="13.5" y="-2010" as="sourcePoint" />
            <mxPoint x="16.5" y="-2197" as="targetPoint" />
            <Array as="points">
              <mxPoint x="110.5" y="-1875" />
              <mxPoint x="110.5" y="-2221" />
            </Array>
          </mxGeometry>
        </mxCell>
        <mxCell id="QzPQM97rYg2r_5IAiYFt-149" value="" style="endArrow=openThin;html=1;rounded=0;endFill=0;exitX=1;exitY=0.25;exitDx=0;exitDy=0;entryX=0;entryY=1;entryDx=0;entryDy=0;" parent="1" source="QzPQM97rYg2r_5IAiYFt-142" target="QzPQM97rYg2r_5IAiYFt-110" edge="1">
          <mxGeometry width="50" height="50" relative="1" as="geometry">
            <mxPoint x="13.5" y="-2010" as="sourcePoint" />
            <mxPoint x="16.5" y="-2197" as="targetPoint" />
          </mxGeometry>
        </mxCell>
        <mxCell id="QzPQM97rYg2r_5IAiYFt-150" value="" style="endArrow=openThin;html=1;rounded=0;endFill=0;exitX=1;exitY=0.25;exitDx=0;exitDy=0;entryX=0.038;entryY=0.686;entryDx=0;entryDy=0;entryPerimeter=0;" parent="1" source="QzPQM97rYg2r_5IAiYFt-122" target="QzPQM97rYg2r_5IAiYFt-110" edge="1">
          <mxGeometry width="50" height="50" relative="1" as="geometry">
            <mxPoint x="-86.5" y="-2102" as="sourcePoint" />
            <mxPoint x="6.5" y="-2201" as="targetPoint" />
          </mxGeometry>
        </mxCell>
        <mxCell id="QzPQM97rYg2r_5IAiYFt-152" value="" style="endArrow=openThin;html=1;rounded=0;endFill=0;exitX=1;exitY=0.5;exitDx=0;exitDy=0;entryX=0;entryY=0.5;entryDx=0;entryDy=0;" parent="1" source="QzPQM97rYg2r_5IAiYFt-119" target="QzPQM97rYg2r_5IAiYFt-110" edge="1">
          <mxGeometry width="50" height="50" relative="1" as="geometry">
            <mxPoint x="-373.5" y="-2116" as="sourcePoint" />
            <mxPoint x="3.5" y="-2206" as="targetPoint" />
          </mxGeometry>
        </mxCell>
        <mxCell id="QzPQM97rYg2r_5IAiYFt-153" value="" style="endArrow=openThin;html=1;rounded=0;endFill=0;exitX=0.5;exitY=0;exitDx=0;exitDy=0;entryX=0.5;entryY=0;entryDx=0;entryDy=0;edgeStyle=orthogonalEdgeStyle;" parent="1" source="QzPQM97rYg2r_5IAiYFt-123" target="QzPQM97rYg2r_5IAiYFt-110" edge="1">
          <mxGeometry width="50" height="50" relative="1" as="geometry">
            <mxPoint x="-498.5" y="-2211" as="sourcePoint" />
            <mxPoint x="2.5" y="-2211" as="targetPoint" />
            <Array as="points">
              <mxPoint x="-702.5" y="-2278" />
              <mxPoint x="5.5" y="-2278" />
            </Array>
          </mxGeometry>
        </mxCell>
        <mxCell id="QzPQM97rYg2r_5IAiYFt-155" value="" style="rounded=0;whiteSpace=wrap;html=1;" parent="1" vertex="1">
          <mxGeometry x="-1540" y="36" width="218" height="391.5" as="geometry" />
        </mxCell>
        <mxCell id="QzPQM97rYg2r_5IAiYFt-156" value="Base donnée" style="text;html=1;align=center;verticalAlign=middle;resizable=0;points=[];autosize=1;strokeColor=none;fillColor=none;" parent="1" vertex="1">
          <mxGeometry x="-1215.5" y="297.25" width="89" height="26" as="geometry" />
        </mxCell>
        <mxCell id="QzPQM97rYg2r_5IAiYFt-157" style="rounded=0;orthogonalLoop=1;jettySize=auto;html=1;entryX=0;entryY=0.5;entryDx=0;entryDy=0;endArrow=none;endFill=0;" parent="1" source="QzPQM97rYg2r_5IAiYFt-161" target="QzPQM97rYg2r_5IAiYFt-165" edge="1">
          <mxGeometry relative="1" as="geometry" />
        </mxCell>
        <mxCell id="QzPQM97rYg2r_5IAiYFt-158" style="rounded=0;orthogonalLoop=1;jettySize=auto;html=1;entryX=0;entryY=0.5;entryDx=0;entryDy=0;endArrow=none;endFill=0;" parent="1" source="QzPQM97rYg2r_5IAiYFt-161" target="QzPQM97rYg2r_5IAiYFt-164" edge="1">
          <mxGeometry relative="1" as="geometry" />
        </mxCell>
        <mxCell id="QzPQM97rYg2r_5IAiYFt-159" style="rounded=0;orthogonalLoop=1;jettySize=auto;html=1;entryX=0;entryY=0.5;entryDx=0;entryDy=0;endArrow=none;endFill=0;" parent="1" source="QzPQM97rYg2r_5IAiYFt-161" target="QzPQM97rYg2r_5IAiYFt-162" edge="1">
          <mxGeometry relative="1" as="geometry" />
        </mxCell>
        <mxCell id="QzPQM97rYg2r_5IAiYFt-161" value="Employe GMT" style="shape=umlActor;verticalLabelPosition=bottom;verticalAlign=top;html=1;" parent="1" vertex="1">
          <mxGeometry x="-1714.5" y="231.25" width="30" height="57.5" as="geometry" />
        </mxCell>
        <mxCell id="QzPQM97rYg2r_5IAiYFt-162" value="Afficher liste de voitures" style="ellipse;whiteSpace=wrap;html=1;" parent="1" vertex="1">
          <mxGeometry x="-1501" y="334" width="140" height="70" as="geometry" />
        </mxCell>
        <mxCell id="QzPQM97rYg2r_5IAiYFt-164" value="Modifier info voiture" style="ellipse;whiteSpace=wrap;html=1;" parent="1" vertex="1">
          <mxGeometry x="-1503" y="226" width="140" height="70" as="geometry" />
        </mxCell>
        <mxCell id="QzPQM97rYg2r_5IAiYFt-165" value="Ajouter voiture" style="ellipse;whiteSpace=wrap;html=1;" parent="1" vertex="1">
          <mxGeometry x="-1503" y="120" width="140" height="70" as="geometry" />
        </mxCell>
        <mxCell id="QzPQM97rYg2r_5IAiYFt-166" value="&amp;lt;&amp;lt; Services &amp;gt;&amp;gt;" style="text;html=1;strokeColor=none;fillColor=none;align=center;verticalAlign=middle;whiteSpace=wrap;rounded=0;" parent="1" vertex="1">
          <mxGeometry x="-1533.5" y="45" width="90" height="30" as="geometry" />
        </mxCell>
        <mxCell id="QzPQM97rYg2r_5IAiYFt-167" value="&lt;b&gt;Gestion de voitures&lt;/b&gt;" style="text;html=1;strokeColor=none;fillColor=none;align=center;verticalAlign=middle;whiteSpace=wrap;rounded=0;" parent="1" vertex="1">
          <mxGeometry x="-1533.5" y="75" width="124" height="30" as="geometry" />
        </mxCell>
        <mxCell id="QzPQM97rYg2r_5IAiYFt-169" style="rounded=0;orthogonalLoop=1;jettySize=auto;html=1;endArrow=none;endFill=0;exitX=0.017;exitY=0.905;exitDx=0;exitDy=0;exitPerimeter=0;" parent="1" source="QzPQM97rYg2r_5IAiYFt-173" target="QzPQM97rYg2r_5IAiYFt-162" edge="1">
          <mxGeometry relative="1" as="geometry">
            <mxPoint x="-1192.5" y="320.28102704594903" as="sourcePoint" />
          </mxGeometry>
        </mxCell>
        <mxCell id="QzPQM97rYg2r_5IAiYFt-170" style="rounded=0;orthogonalLoop=1;jettySize=auto;html=1;entryX=1;entryY=0.5;entryDx=0;entryDy=0;endArrow=none;endFill=0;exitX=0;exitY=0.5;exitDx=0;exitDy=0;" parent="1" source="QzPQM97rYg2r_5IAiYFt-173" target="QzPQM97rYg2r_5IAiYFt-164" edge="1">
          <mxGeometry relative="1" as="geometry">
            <mxPoint x="-1192.5" y="291.620408163265" as="sourcePoint" />
          </mxGeometry>
        </mxCell>
        <mxCell id="QzPQM97rYg2r_5IAiYFt-171" style="rounded=0;orthogonalLoop=1;jettySize=auto;html=1;entryX=1;entryY=0.5;entryDx=0;entryDy=0;endArrow=none;endFill=0;exitX=0.038;exitY=0.146;exitDx=0;exitDy=0;exitPerimeter=0;" parent="1" source="QzPQM97rYg2r_5IAiYFt-173" target="QzPQM97rYg2r_5IAiYFt-165" edge="1">
          <mxGeometry relative="1" as="geometry">
            <mxPoint x="-1181.699999999998" y="266" as="sourcePoint" />
          </mxGeometry>
        </mxCell>
        <mxCell id="QzPQM97rYg2r_5IAiYFt-173" value="" style="shape=datastore;whiteSpace=wrap;html=1;" parent="1" vertex="1">
          <mxGeometry x="-1201" y="233.75" width="60" height="60" as="geometry" />
        </mxCell>
        <mxCell id="QzPQM97rYg2r_5IAiYFt-245" value="" style="rounded=1;whiteSpace=wrap;html=1;fillColor=none;" parent="1" vertex="1">
          <mxGeometry x="427.5" y="-2252.5" width="1163" height="505" as="geometry" />
        </mxCell>
        <mxCell id="QzPQM97rYg2r_5IAiYFt-246" style="edgeStyle=orthogonalEdgeStyle;rounded=0;orthogonalLoop=1;jettySize=auto;html=1;entryX=0;entryY=0.5;entryDx=0;entryDy=0;endArrow=openThin;endFill=0;" parent="1" source="QzPQM97rYg2r_5IAiYFt-247" target="QzPQM97rYg2r_5IAiYFt-253" edge="1">
          <mxGeometry relative="1" as="geometry" />
        </mxCell>
        <mxCell id="QzPQM97rYg2r_5IAiYFt-247" value="" style="ellipse;fillStyle=solid;fillColor=#000000;" parent="1" vertex="1">
          <mxGeometry x="506.5" y="-2029" width="24" height="24" as="geometry" />
        </mxCell>
        <mxCell id="QzPQM97rYg2r_5IAiYFt-248" value="" style="ellipse;html=1;shape=endState;fillColor=strokeColor;" parent="1" vertex="1">
          <mxGeometry x="1406" y="-2015.5" width="27" height="27" as="geometry" />
        </mxCell>
        <mxCell id="QzPQM97rYg2r_5IAiYFt-249" value="Modifier info voiture" style="html=1;align=center;verticalAlign=top;rounded=1;absoluteArcSize=1;arcSize=10;dashed=0;whiteSpace=wrap;" parent="1" vertex="1">
          <mxGeometry x="694.5" y="-2037.5" width="140" height="40" as="geometry" />
        </mxCell>
        <mxCell id="QzPQM97rYg2r_5IAiYFt-250" value="Ajouter une voiture" style="html=1;align=center;verticalAlign=top;rounded=1;absoluteArcSize=1;arcSize=10;dashed=0;whiteSpace=wrap;" parent="1" vertex="1">
          <mxGeometry x="546.5" y="-2174" width="140" height="40" as="geometry" />
        </mxCell>
        <mxCell id="QzPQM97rYg2r_5IAiYFt-251" value="Afficher la liste de voitures" style="html=1;align=center;verticalAlign=top;rounded=1;absoluteArcSize=1;arcSize=10;dashed=0;whiteSpace=wrap;" parent="1" vertex="1">
          <mxGeometry x="546.5" y="-1918.5" width="140" height="40" as="geometry" />
        </mxCell>
        <mxCell id="QzPQM97rYg2r_5IAiYFt-252" style="edgeStyle=orthogonalEdgeStyle;rounded=0;orthogonalLoop=1;jettySize=auto;html=1;entryX=0;entryY=0.5;entryDx=0;entryDy=0;endArrow=classicThin;endFill=1;" parent="1" source="QzPQM97rYg2r_5IAiYFt-253" target="QzPQM97rYg2r_5IAiYFt-249" edge="1">
          <mxGeometry relative="1" as="geometry" />
        </mxCell>
        <mxCell id="QzPQM97rYg2r_5IAiYFt-253" value="" style="rhombus;whiteSpace=wrap;html=1;" parent="1" vertex="1">
          <mxGeometry x="601.5" y="-2027" width="30" height="20" as="geometry" />
        </mxCell>
        <mxCell id="QzPQM97rYg2r_5IAiYFt-254" style="edgeStyle=orthogonalEdgeStyle;rounded=0;orthogonalLoop=1;jettySize=auto;html=1;entryX=0.5;entryY=1;entryDx=0;entryDy=0;endArrow=classicThin;endFill=1;exitX=0.5;exitY=0;exitDx=0;exitDy=0;" parent="1" source="QzPQM97rYg2r_5IAiYFt-253" target="QzPQM97rYg2r_5IAiYFt-250" edge="1">
          <mxGeometry relative="1" as="geometry">
            <mxPoint x="641.5" y="-2006.5" as="sourcePoint" />
            <mxPoint x="726.5" y="-2006.5" as="targetPoint" />
          </mxGeometry>
        </mxCell>
        <mxCell id="QzPQM97rYg2r_5IAiYFt-255" style="rounded=0;orthogonalLoop=1;jettySize=auto;html=1;endArrow=classicThin;endFill=1;exitX=0.5;exitY=1;exitDx=0;exitDy=0;" parent="1" source="QzPQM97rYg2r_5IAiYFt-253" target="QzPQM97rYg2r_5IAiYFt-251" edge="1">
          <mxGeometry relative="1" as="geometry">
            <mxPoint x="619.5" y="-2011.5" as="sourcePoint" />
            <mxPoint x="537.5" y="-2102.5" as="targetPoint" />
          </mxGeometry>
        </mxCell>
        <mxCell id="QzPQM97rYg2r_5IAiYFt-256" style="edgeStyle=orthogonalEdgeStyle;rounded=0;orthogonalLoop=1;jettySize=auto;html=1;entryX=0;entryY=0.5;entryDx=0;entryDy=0;endArrow=openThin;endFill=0;exitX=1;exitY=0.5;exitDx=0;exitDy=0;" parent="1" source="QzPQM97rYg2r_5IAiYFt-274" edge="1">
          <mxGeometry relative="1" as="geometry">
            <mxPoint x="540.5" y="-2006.5" as="sourcePoint" />
            <mxPoint x="1013.5" y="-2017" as="targetPoint" />
          </mxGeometry>
        </mxCell>
        <mxCell id="QzPQM97rYg2r_5IAiYFt-257" value="" style="endArrow=openThin;html=1;rounded=0;endFill=0;exitX=0.5;exitY=1;exitDx=0;exitDy=0;entryX=1;entryY=0.5;entryDx=0;entryDy=0;edgeStyle=orthogonalEdgeStyle;" parent="1" source="QzPQM97rYg2r_5IAiYFt-251" target="QzPQM97rYg2r_5IAiYFt-248" edge="1">
          <mxGeometry width="50" height="50" relative="1" as="geometry">
            <mxPoint x="1208.5" y="-2026.5" as="sourcePoint" />
            <mxPoint x="1211.5" y="-2213.5" as="targetPoint" />
            <Array as="points">
              <mxPoint x="617" y="-1823.5" />
              <mxPoint x="1513" y="-1823.5" />
              <mxPoint x="1513" y="-2001.5" />
              <mxPoint x="1478" y="-2001.5" />
            </Array>
          </mxGeometry>
        </mxCell>
        <mxCell id="QzPQM97rYg2r_5IAiYFt-258" value="" style="endArrow=openThin;html=1;rounded=0;endFill=0;exitX=1;exitY=0.5;exitDx=0;exitDy=0;entryX=0.5;entryY=0;entryDx=0;entryDy=0;edgeStyle=orthogonalEdgeStyle;" parent="1" source="QzPQM97rYg2r_5IAiYFt-250" target="QzPQM97rYg2r_5IAiYFt-274" edge="1">
          <mxGeometry width="50" height="50" relative="1" as="geometry">
            <mxPoint x="821.5" y="-2132.5" as="sourcePoint" />
            <mxPoint x="1198.5" y="-2222.5" as="targetPoint" />
          </mxGeometry>
        </mxCell>
        <mxCell id="QzPQM97rYg2r_5IAiYFt-259" style="rounded=0;orthogonalLoop=1;jettySize=auto;html=1;entryX=0;entryY=0;entryDx=0;entryDy=0;exitX=1;exitY=0.5;exitDx=0;exitDy=0;endArrow=openThin;endFill=0;" parent="1" source="QzPQM97rYg2r_5IAiYFt-260" target="QzPQM97rYg2r_5IAiYFt-247" edge="1">
          <mxGeometry relative="1" as="geometry" />
        </mxCell>
        <mxCell id="QzPQM97rYg2r_5IAiYFt-260" value="Username" style="html=1;align=center;verticalAlign=middle;rounded=0;absoluteArcSize=1;arcSize=10;dashed=0;whiteSpace=wrap;" parent="1" vertex="1">
          <mxGeometry x="338" y="-2176.5" width="125" height="45" as="geometry" />
        </mxCell>
        <mxCell id="QzPQM97rYg2r_5IAiYFt-261" value="Password" style="html=1;align=center;verticalAlign=middle;rounded=0;absoluteArcSize=1;arcSize=10;dashed=0;whiteSpace=wrap;" parent="1" vertex="1">
          <mxGeometry x="338" y="-2099" width="125" height="45" as="geometry" />
        </mxCell>
        <mxCell id="QzPQM97rYg2r_5IAiYFt-262" style="rounded=0;orthogonalLoop=1;jettySize=auto;html=1;entryX=0;entryY=0.5;entryDx=0;entryDy=0;exitX=1;exitY=0.5;exitDx=0;exitDy=0;endArrow=openThin;endFill=0;" parent="1" source="QzPQM97rYg2r_5IAiYFt-261" target="QzPQM97rYg2r_5IAiYFt-247" edge="1">
          <mxGeometry relative="1" as="geometry">
            <mxPoint x="480.5" y="-2098.5" as="sourcePoint" />
            <mxPoint x="520.5" y="-2015.5" as="targetPoint" />
          </mxGeometry>
        </mxCell>
        <mxCell id="QzPQM97rYg2r_5IAiYFt-263" value="Informations de la voiture" style="html=1;align=center;verticalAlign=middle;rounded=0;absoluteArcSize=1;arcSize=10;dashed=0;whiteSpace=wrap;" parent="1" vertex="1">
          <mxGeometry x="683" y="-2276" width="125" height="45" as="geometry" />
        </mxCell>
        <mxCell id="QzPQM97rYg2r_5IAiYFt-264" style="rounded=0;orthogonalLoop=1;jettySize=auto;html=1;entryX=0.5;entryY=0;entryDx=0;entryDy=0;exitX=0.5;exitY=1;exitDx=0;exitDy=0;endArrow=openThin;endFill=0;" parent="1" source="QzPQM97rYg2r_5IAiYFt-263" target="QzPQM97rYg2r_5IAiYFt-250" edge="1">
          <mxGeometry relative="1" as="geometry">
            <mxPoint x="473.5" y="-2143.5" as="sourcePoint" />
            <mxPoint x="520.5" y="-2015.5" as="targetPoint" />
          </mxGeometry>
        </mxCell>
        <mxCell id="QzPQM97rYg2r_5IAiYFt-265" value="" style="rhombus;whiteSpace=wrap;html=1;" parent="1" vertex="1">
          <mxGeometry x="1126.5" y="-1894.5" width="30" height="20" as="geometry" />
        </mxCell>
        <mxCell id="QzPQM97rYg2r_5IAiYFt-266" value="" style="endArrow=openThin;html=1;rounded=0;endFill=0;exitX=0.5;exitY=1;exitDx=0;exitDy=0;entryX=0;entryY=0.5;entryDx=0;entryDy=0;edgeStyle=orthogonalEdgeStyle;" parent="1" source="QzPQM97rYg2r_5IAiYFt-274" target="QzPQM97rYg2r_5IAiYFt-265" edge="1">
          <mxGeometry width="50" height="50" relative="1" as="geometry">
            <mxPoint x="1173.5" y="-2059.5" as="sourcePoint" />
            <mxPoint x="1081.5" y="-1895.5" as="targetPoint" />
          </mxGeometry>
        </mxCell>
        <mxCell id="QzPQM97rYg2r_5IAiYFt-267" value="Sauvegarder voiture" style="html=1;align=center;verticalAlign=top;rounded=1;absoluteArcSize=1;arcSize=10;dashed=0;whiteSpace=wrap;" parent="1" vertex="1">
          <mxGeometry x="1349.5" y="-1904.5" width="140" height="40" as="geometry" />
        </mxCell>
        <mxCell id="QzPQM97rYg2r_5IAiYFt-268" value="[Informations valides]" style="text;html=1;align=center;verticalAlign=middle;resizable=0;points=[];autosize=1;strokeColor=none;fillColor=none;" parent="1" vertex="1">
          <mxGeometry x="1183.5" y="-1911.5" width="131" height="26" as="geometry" />
        </mxCell>
        <mxCell id="QzPQM97rYg2r_5IAiYFt-269" value="" style="endArrow=openThin;html=1;rounded=0;endFill=0;exitX=1;exitY=0.5;exitDx=0;exitDy=0;entryX=0;entryY=0.5;entryDx=0;entryDy=0;" parent="1" source="QzPQM97rYg2r_5IAiYFt-265" target="QzPQM97rYg2r_5IAiYFt-267" edge="1">
          <mxGeometry width="50" height="50" relative="1" as="geometry">
            <mxPoint x="1437.5" y="-1940.5" as="sourcePoint" />
            <mxPoint x="1529.5" y="-1891.5" as="targetPoint" />
          </mxGeometry>
        </mxCell>
        <mxCell id="QzPQM97rYg2r_5IAiYFt-270" value="" style="endArrow=openThin;html=1;rounded=0;endFill=0;exitX=0.5;exitY=0;exitDx=0;exitDy=0;entryX=1;entryY=0.5;entryDx=0;entryDy=0;edgeStyle=orthogonalEdgeStyle;" parent="1" source="QzPQM97rYg2r_5IAiYFt-265" target="QzPQM97rYg2r_5IAiYFt-274" edge="1">
          <mxGeometry width="50" height="50" relative="1" as="geometry">
            <mxPoint x="1093.5" y="-1987.5" as="sourcePoint" />
            <mxPoint x="1270.5" y="-2034.5" as="targetPoint" />
          </mxGeometry>
        </mxCell>
        <mxCell id="QzPQM97rYg2r_5IAiYFt-271" value="&lt;p class=&quot;MsoNormal&quot;&gt;&lt;/p&gt;[Informations de la voiture&lt;span style=&quot;background-color: initial;&quot;&gt;]&lt;/span&gt;" style="text;html=1;align=center;verticalAlign=middle;resizable=0;points=[];autosize=1;strokeColor=none;fillColor=none;" parent="1" vertex="1">
          <mxGeometry x="1079.5" y="-2065" width="159" height="38" as="geometry" />
        </mxCell>
        <mxCell id="QzPQM97rYg2r_5IAiYFt-272" value="" style="endArrow=openThin;html=1;rounded=0;endFill=0;exitX=0.5;exitY=0;exitDx=0;exitDy=0;entryX=0.5;entryY=1;entryDx=0;entryDy=0;" parent="1" source="QzPQM97rYg2r_5IAiYFt-267" target="QzPQM97rYg2r_5IAiYFt-248" edge="1">
          <mxGeometry width="50" height="50" relative="1" as="geometry">
            <mxPoint x="1287.5" y="-1870.5" as="sourcePoint" />
            <mxPoint x="1514.5" y="-1958.5000000000002" as="targetPoint" />
          </mxGeometry>
        </mxCell>
        <mxCell id="QzPQM97rYg2r_5IAiYFt-273" value="" style="edgeStyle=orthogonalEdgeStyle;rounded=0;orthogonalLoop=1;jettySize=auto;html=1;entryX=0;entryY=0.5;entryDx=0;entryDy=0;endArrow=openThin;endFill=0;exitX=1;exitY=0.5;exitDx=0;exitDy=0;" parent="1" source="QzPQM97rYg2r_5IAiYFt-249" target="QzPQM97rYg2r_5IAiYFt-274" edge="1">
          <mxGeometry relative="1" as="geometry">
            <mxPoint x="834.5" y="-2017.5" as="sourcePoint" />
            <mxPoint x="1013.5" y="-2017" as="targetPoint" />
          </mxGeometry>
        </mxCell>
        <mxCell id="QzPQM97rYg2r_5IAiYFt-274" value="Valider informations" style="html=1;align=center;verticalAlign=top;rounded=1;absoluteArcSize=1;arcSize=10;dashed=0;whiteSpace=wrap;" parent="1" vertex="1">
          <mxGeometry x="899.5" y="-2037.5" width="140" height="40" as="geometry" />
        </mxCell>
        <mxCell id="QzPQM97rYg2r_5IAiYFt-275" value="" style="rounded=1;whiteSpace=wrap;html=1;fillColor=none;" parent="1" vertex="1">
          <mxGeometry x="-794.5" y="83.5" width="953.75" height="459.5" as="geometry" />
        </mxCell>
        <mxCell id="QzPQM97rYg2r_5IAiYFt-277" value="" style="ellipse;fillStyle=solid;fillColor=#000000;" parent="1" vertex="1">
          <mxGeometry x="-617.5" y="309" width="24" height="24" as="geometry" />
        </mxCell>
        <mxCell id="QzPQM97rYg2r_5IAiYFt-278" value="" style="ellipse;html=1;shape=endState;fillColor=strokeColor;" parent="1" vertex="1">
          <mxGeometry x="2.75" y="327" width="27" height="27" as="geometry" />
        </mxCell>
        <mxCell id="QzPQM97rYg2r_5IAiYFt-280" value="Ajouter une voiture" style="html=1;align=center;verticalAlign=top;rounded=1;absoluteArcSize=1;arcSize=10;dashed=0;whiteSpace=wrap;" parent="1" vertex="1">
          <mxGeometry x="-675.5" y="162" width="140" height="40" as="geometry" />
        </mxCell>
        <mxCell id="QzPQM97rYg2r_5IAiYFt-284" style="edgeStyle=orthogonalEdgeStyle;rounded=0;orthogonalLoop=1;jettySize=auto;html=1;entryX=0.5;entryY=1;entryDx=0;entryDy=0;endArrow=classicThin;endFill=1;exitX=0.5;exitY=0;exitDx=0;exitDy=0;" parent="1" target="QzPQM97rYg2r_5IAiYFt-280" edge="1">
          <mxGeometry relative="1" as="geometry">
            <mxPoint x="-605.5" y="309" as="sourcePoint" />
            <mxPoint x="-495.5" y="329.5" as="targetPoint" />
          </mxGeometry>
        </mxCell>
        <mxCell id="QzPQM97rYg2r_5IAiYFt-288" value="" style="endArrow=openThin;html=1;rounded=0;endFill=0;exitX=1;exitY=0.5;exitDx=0;exitDy=0;entryX=0.5;entryY=0;entryDx=0;entryDy=0;edgeStyle=orthogonalEdgeStyle;" parent="1" source="QzPQM97rYg2r_5IAiYFt-280" target="QzPQM97rYg2r_5IAiYFt-304" edge="1">
          <mxGeometry width="50" height="50" relative="1" as="geometry">
            <mxPoint x="-400.5" y="203.5" as="sourcePoint" />
            <mxPoint x="-23.5" y="113.5" as="targetPoint" />
          </mxGeometry>
        </mxCell>
        <mxCell id="QzPQM97rYg2r_5IAiYFt-293" value="Informations de la voiture" style="html=1;align=center;verticalAlign=middle;rounded=0;absoluteArcSize=1;arcSize=10;dashed=0;whiteSpace=wrap;" parent="1" vertex="1">
          <mxGeometry x="-539" y="60" width="125" height="45" as="geometry" />
        </mxCell>
        <mxCell id="QzPQM97rYg2r_5IAiYFt-294" style="rounded=0;orthogonalLoop=1;jettySize=auto;html=1;entryX=0.5;entryY=0;entryDx=0;entryDy=0;exitX=0.5;exitY=1;exitDx=0;exitDy=0;endArrow=openThin;endFill=0;" parent="1" source="QzPQM97rYg2r_5IAiYFt-293" target="QzPQM97rYg2r_5IAiYFt-280" edge="1">
          <mxGeometry relative="1" as="geometry">
            <mxPoint x="-748.5" y="192.5" as="sourcePoint" />
            <mxPoint x="-701.5" y="320.5" as="targetPoint" />
          </mxGeometry>
        </mxCell>
        <mxCell id="QzPQM97rYg2r_5IAiYFt-295" value="" style="rhombus;whiteSpace=wrap;html=1;" parent="1" vertex="1">
          <mxGeometry x="-283.75" y="441.5" width="30" height="20" as="geometry" />
        </mxCell>
        <mxCell id="QzPQM97rYg2r_5IAiYFt-296" value="" style="endArrow=openThin;html=1;rounded=0;endFill=0;exitX=0.5;exitY=1;exitDx=0;exitDy=0;entryX=0;entryY=0.5;entryDx=0;entryDy=0;edgeStyle=orthogonalEdgeStyle;" parent="1" source="QzPQM97rYg2r_5IAiYFt-304" target="QzPQM97rYg2r_5IAiYFt-295" edge="1">
          <mxGeometry width="50" height="50" relative="1" as="geometry">
            <mxPoint x="-48.5" y="276.5" as="sourcePoint" />
            <mxPoint x="-140.5" y="440.5" as="targetPoint" />
          </mxGeometry>
        </mxCell>
        <mxCell id="QzPQM97rYg2r_5IAiYFt-297" value="Sauvegarder voiture" style="html=1;align=center;verticalAlign=top;rounded=1;absoluteArcSize=1;arcSize=10;dashed=0;whiteSpace=wrap;" parent="1" vertex="1">
          <mxGeometry x="-53.75" y="431.5" width="140" height="40" as="geometry" />
        </mxCell>
        <mxCell id="QzPQM97rYg2r_5IAiYFt-298" value="[Informations valides]" style="text;html=1;align=center;verticalAlign=middle;resizable=0;points=[];autosize=1;strokeColor=none;fillColor=none;" parent="1" vertex="1">
          <mxGeometry x="-227.25" y="419.5" width="131" height="26" as="geometry" />
        </mxCell>
        <mxCell id="QzPQM97rYg2r_5IAiYFt-299" value="" style="endArrow=openThin;html=1;rounded=0;endFill=0;exitX=1;exitY=0.5;exitDx=0;exitDy=0;entryX=0;entryY=0.5;entryDx=0;entryDy=0;" parent="1" source="QzPQM97rYg2r_5IAiYFt-295" target="QzPQM97rYg2r_5IAiYFt-297" edge="1">
          <mxGeometry width="50" height="50" relative="1" as="geometry">
            <mxPoint x="215.5" y="395.5" as="sourcePoint" />
            <mxPoint x="307.5" y="444.5" as="targetPoint" />
          </mxGeometry>
        </mxCell>
        <mxCell id="QzPQM97rYg2r_5IAiYFt-300" value="" style="endArrow=openThin;html=1;rounded=0;endFill=0;exitX=0.5;exitY=0;exitDx=0;exitDy=0;entryX=1;entryY=0.5;entryDx=0;entryDy=0;edgeStyle=orthogonalEdgeStyle;" parent="1" source="QzPQM97rYg2r_5IAiYFt-295" target="QzPQM97rYg2r_5IAiYFt-304" edge="1">
          <mxGeometry width="50" height="50" relative="1" as="geometry">
            <mxPoint x="-128.5" y="348.5" as="sourcePoint" />
            <mxPoint x="48.5" y="301.5" as="targetPoint" />
          </mxGeometry>
        </mxCell>
        <mxCell id="QzPQM97rYg2r_5IAiYFt-301" value="&lt;p class=&quot;MsoNormal&quot;&gt;&lt;/p&gt;[Informations de la voiture&lt;span style=&quot;background-color: initial;&quot;&gt;]&lt;/span&gt;" style="text;html=1;align=center;verticalAlign=middle;resizable=0;points=[];autosize=1;strokeColor=none;fillColor=none;" parent="1" vertex="1">
          <mxGeometry x="-354.75" y="257" width="159" height="38" as="geometry" />
        </mxCell>
        <mxCell id="QzPQM97rYg2r_5IAiYFt-302" value="" style="endArrow=openThin;html=1;rounded=0;endFill=0;exitX=0.5;exitY=0;exitDx=0;exitDy=0;entryX=0.5;entryY=1;entryDx=0;entryDy=0;" parent="1" source="QzPQM97rYg2r_5IAiYFt-297" target="QzPQM97rYg2r_5IAiYFt-278" edge="1">
          <mxGeometry width="50" height="50" relative="1" as="geometry">
            <mxPoint x="65.5" y="465.5" as="sourcePoint" />
            <mxPoint x="292.5" y="377.4999999999998" as="targetPoint" />
          </mxGeometry>
        </mxCell>
        <mxCell id="QzPQM97rYg2r_5IAiYFt-304" value="Valider informations" style="html=1;align=center;verticalAlign=top;rounded=1;absoluteArcSize=1;arcSize=10;dashed=0;whiteSpace=wrap;" parent="1" vertex="1">
          <mxGeometry x="-515.75" y="283" width="140" height="40" as="geometry" />
        </mxCell>
        <mxCell id="QzPQM97rYg2r_5IAiYFt-305" value="" style="rounded=1;whiteSpace=wrap;html=1;fillColor=none;" parent="1" vertex="1">
          <mxGeometry x="341.5" y="130" width="1027.62" height="339" as="geometry" />
        </mxCell>
        <mxCell id="QzPQM97rYg2r_5IAiYFt-307" value="" style="ellipse;fillStyle=solid;fillColor=#000000;" parent="1" vertex="1">
          <mxGeometry x="420.5" y="222" width="24" height="24" as="geometry" />
        </mxCell>
        <mxCell id="QzPQM97rYg2r_5IAiYFt-308" value="" style="ellipse;html=1;shape=endState;fillColor=strokeColor;" parent="1" vertex="1">
          <mxGeometry x="1195.12" y="233" width="27" height="27" as="geometry" />
        </mxCell>
        <mxCell id="QzPQM97rYg2r_5IAiYFt-309" value="Modifier info voiture" style="html=1;align=center;verticalAlign=top;rounded=1;absoluteArcSize=1;arcSize=10;dashed=0;whiteSpace=wrap;" parent="1" vertex="1">
          <mxGeometry x="520.3699999999999" y="213.5" width="140" height="40" as="geometry" />
        </mxCell>
        <mxCell id="QzPQM97rYg2r_5IAiYFt-312" style="edgeStyle=orthogonalEdgeStyle;rounded=0;orthogonalLoop=1;jettySize=auto;html=1;entryX=0;entryY=0.5;entryDx=0;entryDy=0;endArrow=classicThin;endFill=1;exitX=1;exitY=0.5;exitDx=0;exitDy=0;" parent="1" source="QzPQM97rYg2r_5IAiYFt-307" target="QzPQM97rYg2r_5IAiYFt-309" edge="1">
          <mxGeometry relative="1" as="geometry">
            <mxPoint x="545.5" y="234" as="sourcePoint" />
          </mxGeometry>
        </mxCell>
        <mxCell id="QzPQM97rYg2r_5IAiYFt-325" value="" style="rhombus;whiteSpace=wrap;html=1;" parent="1" vertex="1">
          <mxGeometry x="957.1199999999999" y="356.5" width="30" height="20" as="geometry" />
        </mxCell>
        <mxCell id="QzPQM97rYg2r_5IAiYFt-326" value="" style="endArrow=openThin;html=1;rounded=0;endFill=0;exitX=0.5;exitY=1;exitDx=0;exitDy=0;entryX=0;entryY=0.5;entryDx=0;entryDy=0;edgeStyle=orthogonalEdgeStyle;" parent="1" source="QzPQM97rYg2r_5IAiYFt-334" target="QzPQM97rYg2r_5IAiYFt-325" edge="1">
          <mxGeometry width="50" height="50" relative="1" as="geometry">
            <mxPoint x="1087.5" y="191.5" as="sourcePoint" />
            <mxPoint x="995.5" y="355.5" as="targetPoint" />
          </mxGeometry>
        </mxCell>
        <mxCell id="QzPQM97rYg2r_5IAiYFt-327" value="Sauvegarder voiture" style="html=1;align=center;verticalAlign=top;rounded=1;absoluteArcSize=1;arcSize=10;dashed=0;whiteSpace=wrap;" parent="1" vertex="1">
          <mxGeometry x="1138.62" y="346.5" width="140" height="40" as="geometry" />
        </mxCell>
        <mxCell id="QzPQM97rYg2r_5IAiYFt-328" value="[Informations valides]" style="text;html=1;align=center;verticalAlign=middle;resizable=0;points=[];autosize=1;strokeColor=none;fillColor=none;" parent="1" vertex="1">
          <mxGeometry x="1000.1199999999999" y="338" width="131" height="26" as="geometry" />
        </mxCell>
        <mxCell id="QzPQM97rYg2r_5IAiYFt-329" value="" style="endArrow=openThin;html=1;rounded=0;endFill=0;exitX=1;exitY=0.5;exitDx=0;exitDy=0;entryX=0;entryY=0.5;entryDx=0;entryDy=0;" parent="1" source="QzPQM97rYg2r_5IAiYFt-325" target="QzPQM97rYg2r_5IAiYFt-327" edge="1">
          <mxGeometry width="50" height="50" relative="1" as="geometry">
            <mxPoint x="1351.5" y="310.5" as="sourcePoint" />
            <mxPoint x="1443.5" y="359.5" as="targetPoint" />
          </mxGeometry>
        </mxCell>
        <mxCell id="QzPQM97rYg2r_5IAiYFt-330" value="" style="endArrow=openThin;html=1;rounded=0;endFill=0;edgeStyle=orthogonalEdgeStyle;entryX=1;entryY=0.5;entryDx=0;entryDy=0;exitX=0.5;exitY=0;exitDx=0;exitDy=0;" parent="1" source="QzPQM97rYg2r_5IAiYFt-325" target="QzPQM97rYg2r_5IAiYFt-334" edge="1">
          <mxGeometry width="50" height="50" relative="1" as="geometry">
            <mxPoint x="974.1199999999999" y="358" as="sourcePoint" />
            <mxPoint x="906.1199999999999" y="254" as="targetPoint" />
            <Array as="points">
              <mxPoint x="972.1199999999999" y="234" />
              <mxPoint x="974.1199999999999" y="234" />
            </Array>
          </mxGeometry>
        </mxCell>
        <mxCell id="QzPQM97rYg2r_5IAiYFt-331" value="&lt;p class=&quot;MsoNormal&quot;&gt;&lt;/p&gt;[Informations de la voiture&lt;span style=&quot;background-color: initial;&quot;&gt;]&lt;/span&gt;" style="text;html=1;align=center;verticalAlign=middle;resizable=0;points=[];autosize=1;strokeColor=none;fillColor=none;" parent="1" vertex="1">
          <mxGeometry x="902.1199999999999" y="195" width="159" height="38" as="geometry" />
        </mxCell>
        <mxCell id="QzPQM97rYg2r_5IAiYFt-332" value="" style="endArrow=openThin;html=1;rounded=0;endFill=0;exitX=0.5;exitY=0;exitDx=0;exitDy=0;entryX=0.5;entryY=1;entryDx=0;entryDy=0;" parent="1" source="QzPQM97rYg2r_5IAiYFt-327" target="QzPQM97rYg2r_5IAiYFt-308" edge="1">
          <mxGeometry width="50" height="50" relative="1" as="geometry">
            <mxPoint x="1201.5" y="380.5" as="sourcePoint" />
            <mxPoint x="1428.5" y="292.4999999999998" as="targetPoint" />
          </mxGeometry>
        </mxCell>
        <mxCell id="QzPQM97rYg2r_5IAiYFt-333" value="" style="edgeStyle=orthogonalEdgeStyle;rounded=0;orthogonalLoop=1;jettySize=auto;html=1;entryX=0;entryY=0.5;entryDx=0;entryDy=0;endArrow=openThin;endFill=0;exitX=1;exitY=0.5;exitDx=0;exitDy=0;" parent="1" source="QzPQM97rYg2r_5IAiYFt-309" target="QzPQM97rYg2r_5IAiYFt-334" edge="1">
          <mxGeometry relative="1" as="geometry">
            <mxPoint x="748.5" y="233.5" as="sourcePoint" />
            <mxPoint x="927.5" y="234" as="targetPoint" />
          </mxGeometry>
        </mxCell>
        <mxCell id="QzPQM97rYg2r_5IAiYFt-334" value="Valider informations" style="html=1;align=center;verticalAlign=top;rounded=1;absoluteArcSize=1;arcSize=10;dashed=0;whiteSpace=wrap;" parent="1" vertex="1">
          <mxGeometry x="747.1199999999999" y="213.5" width="140" height="40" as="geometry" />
        </mxCell>
        <mxCell id="QzPQM97rYg2r_5IAiYFt-338" value="" style="rounded=1;whiteSpace=wrap;html=1;fillColor=none;" parent="1" vertex="1">
          <mxGeometry x="1517.5" y="211.25" width="550.62" height="169" as="geometry" />
        </mxCell>
        <mxCell id="QzPQM97rYg2r_5IAiYFt-340" value="" style="ellipse;fillStyle=solid;fillColor=#000000;" parent="1" vertex="1">
          <mxGeometry x="1596.5" y="283.25" width="24" height="24" as="geometry" />
        </mxCell>
        <mxCell id="QzPQM97rYg2r_5IAiYFt-341" value="" style="ellipse;html=1;shape=endState;fillColor=strokeColor;" parent="1" vertex="1">
          <mxGeometry x="1969.12" y="281.75" width="27" height="27" as="geometry" />
        </mxCell>
        <mxCell id="QzPQM97rYg2r_5IAiYFt-344" value="Afficher la liste de voitures" style="html=1;align=center;verticalAlign=top;rounded=1;absoluteArcSize=1;arcSize=10;dashed=0;whiteSpace=wrap;" parent="1" vertex="1">
          <mxGeometry x="1706.62" y="275.25" width="140" height="40" as="geometry" />
        </mxCell>
        <mxCell id="QzPQM97rYg2r_5IAiYFt-348" style="rounded=0;orthogonalLoop=1;jettySize=auto;html=1;endArrow=classicThin;endFill=1;exitX=1;exitY=0.5;exitDx=0;exitDy=0;" parent="1" source="QzPQM97rYg2r_5IAiYFt-340" target="QzPQM97rYg2r_5IAiYFt-344" edge="1">
          <mxGeometry relative="1" as="geometry">
            <mxPoint x="1706.5" y="305.25" as="sourcePoint" />
            <mxPoint x="1627.5" y="209.75" as="targetPoint" />
          </mxGeometry>
        </mxCell>
        <mxCell id="QzPQM97rYg2r_5IAiYFt-350" value="" style="endArrow=openThin;html=1;rounded=0;endFill=0;exitX=1;exitY=0.5;exitDx=0;exitDy=0;entryX=0;entryY=0.5;entryDx=0;entryDy=0;" parent="1" source="QzPQM97rYg2r_5IAiYFt-344" target="QzPQM97rYg2r_5IAiYFt-341" edge="1">
          <mxGeometry width="50" height="50" relative="1" as="geometry">
            <mxPoint x="2298.5" y="285.75" as="sourcePoint" />
            <mxPoint x="2301.5" y="98.75" as="targetPoint" />
          </mxGeometry>
        </mxCell>
        <mxCell id="QzPQM97rYg2r_5IAiYFt-368" value="" style="rounded=1;whiteSpace=wrap;html=1;fillColor=none;" parent="1" vertex="1">
          <mxGeometry x="3273" y="-1245.75" width="531" height="190" as="geometry" />
        </mxCell>
        <mxCell id="QzPQM97rYg2r_5IAiYFt-369" style="edgeStyle=orthogonalEdgeStyle;rounded=0;orthogonalLoop=1;jettySize=auto;html=1;entryX=0;entryY=0.5;entryDx=0;entryDy=0;endArrow=openThin;endFill=0;" parent="1" source="QzPQM97rYg2r_5IAiYFt-370" edge="1">
          <mxGeometry relative="1" as="geometry">
            <mxPoint x="3450" y="-1143.25" as="targetPoint" />
          </mxGeometry>
        </mxCell>
        <mxCell id="QzPQM97rYg2r_5IAiYFt-370" value="" style="ellipse;fillStyle=solid;fillColor=#000000;" parent="1" vertex="1">
          <mxGeometry x="3355" y="-1155.25" width="24" height="24" as="geometry" />
        </mxCell>
        <mxCell id="QzPQM97rYg2r_5IAiYFt-375" value="" style="ellipse;html=1;shape=endState;fillColor=strokeColor;" parent="1" vertex="1">
          <mxGeometry x="3714" y="-1155.25" width="27" height="27" as="geometry" />
        </mxCell>
        <mxCell id="QzPQM97rYg2r_5IAiYFt-382" value="Voir Services" style="html=1;align=center;verticalAlign=top;rounded=1;absoluteArcSize=1;arcSize=10;dashed=0;whiteSpace=wrap;" parent="1" vertex="1">
          <mxGeometry x="3450" y="-1163.25" width="140" height="40" as="geometry" />
        </mxCell>
        <mxCell id="QzPQM97rYg2r_5IAiYFt-403" value="" style="endArrow=openThin;html=1;rounded=0;endFill=0;exitX=1;exitY=0.5;exitDx=0;exitDy=0;entryX=0;entryY=0.5;entryDx=0;entryDy=0;" parent="1" source="QzPQM97rYg2r_5IAiYFt-382" target="QzPQM97rYg2r_5IAiYFt-375" edge="1">
          <mxGeometry width="50" height="50" relative="1" as="geometry">
            <mxPoint x="3545" y="-1353.75" as="sourcePoint" />
            <mxPoint x="4046" y="-1353.75" as="targetPoint" />
          </mxGeometry>
        </mxCell>
        <mxCell id="QzPQM97rYg2r_5IAiYFt-404" value="" style="rounded=1;whiteSpace=wrap;html=1;fillColor=none;" parent="1" vertex="1">
          <mxGeometry x="2578" y="-1242.75" width="531" height="190" as="geometry" />
        </mxCell>
        <mxCell id="QzPQM97rYg2r_5IAiYFt-405" style="edgeStyle=orthogonalEdgeStyle;rounded=0;orthogonalLoop=1;jettySize=auto;html=1;entryX=0;entryY=0.5;entryDx=0;entryDy=0;endArrow=openThin;endFill=0;" parent="1" source="QzPQM97rYg2r_5IAiYFt-406" edge="1">
          <mxGeometry relative="1" as="geometry">
            <mxPoint x="2755" y="-1140.25" as="targetPoint" />
          </mxGeometry>
        </mxCell>
        <mxCell id="QzPQM97rYg2r_5IAiYFt-406" value="" style="ellipse;fillStyle=solid;fillColor=#000000;" parent="1" vertex="1">
          <mxGeometry x="2660" y="-1152.25" width="24" height="24" as="geometry" />
        </mxCell>
        <mxCell id="QzPQM97rYg2r_5IAiYFt-407" value="" style="ellipse;html=1;shape=endState;fillColor=strokeColor;" parent="1" vertex="1">
          <mxGeometry x="3019" y="-1152.25" width="27" height="27" as="geometry" />
        </mxCell>
        <mxCell id="QzPQM97rYg2r_5IAiYFt-408" value="Contactez nous" style="html=1;align=center;verticalAlign=top;rounded=1;absoluteArcSize=1;arcSize=10;dashed=0;whiteSpace=wrap;" parent="1" vertex="1">
          <mxGeometry x="2755" y="-1160.25" width="140" height="40" as="geometry" />
        </mxCell>
        <mxCell id="QzPQM97rYg2r_5IAiYFt-409" value="" style="endArrow=openThin;html=1;rounded=0;endFill=0;exitX=1;exitY=0.5;exitDx=0;exitDy=0;entryX=0;entryY=0.5;entryDx=0;entryDy=0;" parent="1" source="QzPQM97rYg2r_5IAiYFt-408" target="QzPQM97rYg2r_5IAiYFt-407" edge="1">
          <mxGeometry width="50" height="50" relative="1" as="geometry">
            <mxPoint x="2850" y="-1350.75" as="sourcePoint" />
            <mxPoint x="3351" y="-1350.75" as="targetPoint" />
          </mxGeometry>
        </mxCell>
        <mxCell id="QzPQM97rYg2r_5IAiYFt-410" value="" style="rounded=1;whiteSpace=wrap;html=1;fillColor=none;" parent="1" vertex="1">
          <mxGeometry x="-829" y="-1405.25" width="878" height="489" as="geometry" />
        </mxCell>
        <mxCell id="QzPQM97rYg2r_5IAiYFt-411" style="edgeStyle=orthogonalEdgeStyle;rounded=0;orthogonalLoop=1;jettySize=auto;html=1;entryX=0;entryY=0.5;entryDx=0;entryDy=0;endArrow=openThin;endFill=0;" parent="1" source="QzPQM97rYg2r_5IAiYFt-412" target="QzPQM97rYg2r_5IAiYFt-419" edge="1">
          <mxGeometry relative="1" as="geometry">
            <mxPoint x="-718" y="-1121.75" as="targetPoint" />
          </mxGeometry>
        </mxCell>
        <mxCell id="QzPQM97rYg2r_5IAiYFt-412" value="" style="ellipse;fillStyle=solid;fillColor=#000000;" parent="1" vertex="1">
          <mxGeometry x="-757" y="-1133.75" width="24" height="24" as="geometry" />
        </mxCell>
        <mxCell id="QzPQM97rYg2r_5IAiYFt-413" value="" style="rhombus;whiteSpace=wrap;html=1;" parent="1" vertex="1">
          <mxGeometry x="-306" y="-1131.75" width="30" height="20" as="geometry" />
        </mxCell>
        <mxCell id="QzPQM97rYg2r_5IAiYFt-414" value="Contactez nous" style="html=1;align=center;verticalAlign=top;rounded=1;absoluteArcSize=1;arcSize=10;dashed=0;whiteSpace=wrap;" parent="1" vertex="1">
          <mxGeometry x="-191" y="-1141.75" width="140" height="40" as="geometry" />
        </mxCell>
        <mxCell id="QzPQM97rYg2r_5IAiYFt-417" value="" style="ellipse;html=1;shape=endState;fillColor=strokeColor;" parent="1" vertex="1">
          <mxGeometry x="-132" y="-1355.75" width="27" height="27" as="geometry" />
        </mxCell>
        <mxCell id="QzPQM97rYg2r_5IAiYFt-418" value="" style="endArrow=openThin;html=1;rounded=0;endFill=0;exitX=0.5;exitY=0;exitDx=0;exitDy=0;entryX=0.5;entryY=1;entryDx=0;entryDy=0;" parent="1" source="QzPQM97rYg2r_5IAiYFt-414" target="QzPQM97rYg2r_5IAiYFt-417" edge="1">
          <mxGeometry width="50" height="50" relative="1" as="geometry">
            <mxPoint x="-451" y="-765.75" as="sourcePoint" />
            <mxPoint x="-284" y="-765.75" as="targetPoint" />
          </mxGeometry>
        </mxCell>
        <mxCell id="QzPQM97rYg2r_5IAiYFt-419" value="Sélectionner la voiture" style="html=1;align=center;verticalAlign=top;rounded=1;absoluteArcSize=1;arcSize=10;dashed=0;whiteSpace=wrap;" parent="1" vertex="1">
          <mxGeometry x="-648" y="-1141.75" width="140" height="40" as="geometry" />
        </mxCell>
        <mxCell id="QzPQM97rYg2r_5IAiYFt-423" value="Calculatrice d&#39;interet" style="html=1;align=center;verticalAlign=top;rounded=1;absoluteArcSize=1;arcSize=10;dashed=0;whiteSpace=wrap;" parent="1" vertex="1">
          <mxGeometry x="-595" y="-1295.25" width="140" height="40" as="geometry" />
        </mxCell>
        <mxCell id="QzPQM97rYg2r_5IAiYFt-434" style="edgeStyle=orthogonalEdgeStyle;rounded=0;orthogonalLoop=1;jettySize=auto;html=1;entryX=0;entryY=0.5;entryDx=0;entryDy=0;endArrow=openThin;endFill=0;exitX=1;exitY=0.5;exitDx=0;exitDy=0;" parent="1" source="QzPQM97rYg2r_5IAiYFt-419" target="QzPQM97rYg2r_5IAiYFt-413" edge="1">
          <mxGeometry relative="1" as="geometry">
            <mxPoint x="-779" y="-1111.25" as="sourcePoint" />
            <mxPoint x="-708" y="-1111.25" as="targetPoint" />
          </mxGeometry>
        </mxCell>
        <mxCell id="QzPQM97rYg2r_5IAiYFt-435" value="Informations sur la voiture" style="html=1;align=center;verticalAlign=top;rounded=1;absoluteArcSize=1;arcSize=10;dashed=0;whiteSpace=wrap;" parent="1" vertex="1">
          <mxGeometry x="-361" y="-1243.25" width="140" height="40" as="geometry" />
        </mxCell>
        <mxCell id="QzPQM97rYg2r_5IAiYFt-436" style="rounded=0;orthogonalLoop=1;jettySize=auto;html=1;entryX=0.5;entryY=1;entryDx=0;entryDy=0;endArrow=classicThin;endFill=1;exitX=0.5;exitY=0;exitDx=0;exitDy=0;" parent="1" source="QzPQM97rYg2r_5IAiYFt-413" target="QzPQM97rYg2r_5IAiYFt-435" edge="1">
          <mxGeometry relative="1" as="geometry">
            <mxPoint x="-685" y="-1116.25" as="sourcePoint" />
            <mxPoint x="-603" y="-1207.25" as="targetPoint" />
          </mxGeometry>
        </mxCell>
        <mxCell id="QzPQM97rYg2r_5IAiYFt-437" value="Lien Carfax" style="html=1;align=center;verticalAlign=top;rounded=1;absoluteArcSize=1;arcSize=10;dashed=0;whiteSpace=wrap;" parent="1" vertex="1">
          <mxGeometry x="-361" y="-1016.25" width="140" height="40" as="geometry" />
        </mxCell>
        <mxCell id="QzPQM97rYg2r_5IAiYFt-438" style="rounded=0;orthogonalLoop=1;jettySize=auto;html=1;endArrow=classicThin;endFill=1;exitX=0.5;exitY=1;exitDx=0;exitDy=0;" parent="1" source="QzPQM97rYg2r_5IAiYFt-413" target="QzPQM97rYg2r_5IAiYFt-437" edge="1">
          <mxGeometry relative="1" as="geometry">
            <mxPoint x="-281" y="-1121.25" as="sourcePoint" />
            <mxPoint x="-281" y="-1193.25" as="targetPoint" />
          </mxGeometry>
        </mxCell>
        <mxCell id="QzPQM97rYg2r_5IAiYFt-439" style="rounded=0;orthogonalLoop=1;jettySize=auto;html=1;entryX=0.75;entryY=1;entryDx=0;entryDy=0;endArrow=classicThin;endFill=1;exitX=0;exitY=0;exitDx=0;exitDy=0;" parent="1" source="QzPQM97rYg2r_5IAiYFt-413" target="QzPQM97rYg2r_5IAiYFt-423" edge="1">
          <mxGeometry relative="1" as="geometry">
            <mxPoint x="-281" y="-1121.25" as="sourcePoint" />
            <mxPoint x="-281" y="-1193.25" as="targetPoint" />
          </mxGeometry>
        </mxCell>
        <mxCell id="QzPQM97rYg2r_5IAiYFt-440" style="rounded=0;orthogonalLoop=1;jettySize=auto;html=1;endArrow=classicThin;endFill=1;exitX=1;exitY=0.5;exitDx=0;exitDy=0;entryX=0;entryY=0.5;entryDx=0;entryDy=0;" parent="1" source="QzPQM97rYg2r_5IAiYFt-413" target="QzPQM97rYg2r_5IAiYFt-414" edge="1">
          <mxGeometry relative="1" as="geometry">
            <mxPoint x="-281" y="-1101.25" as="sourcePoint" />
            <mxPoint x="-281" y="-1006.25" as="targetPoint" />
          </mxGeometry>
        </mxCell>
        <mxCell id="QzPQM97rYg2r_5IAiYFt-441" value="" style="endArrow=openThin;html=1;rounded=0;endFill=0;exitX=1;exitY=0.5;exitDx=0;exitDy=0;entryX=1;entryY=0.5;entryDx=0;entryDy=0;edgeStyle=orthogonalEdgeStyle;" parent="1" source="QzPQM97rYg2r_5IAiYFt-437" target="QzPQM97rYg2r_5IAiYFt-417" edge="1">
          <mxGeometry width="50" height="50" relative="1" as="geometry">
            <mxPoint x="-111" y="-1131.25" as="sourcePoint" />
            <mxPoint x="-108" y="-1318.25" as="targetPoint" />
            <Array as="points">
              <mxPoint x="-14" y="-996.25" />
              <mxPoint x="-14" y="-1342.25" />
            </Array>
          </mxGeometry>
        </mxCell>
        <mxCell id="QzPQM97rYg2r_5IAiYFt-442" value="" style="endArrow=openThin;html=1;rounded=0;endFill=0;exitX=1;exitY=0.25;exitDx=0;exitDy=0;entryX=0;entryY=1;entryDx=0;entryDy=0;" parent="1" source="QzPQM97rYg2r_5IAiYFt-435" target="QzPQM97rYg2r_5IAiYFt-417" edge="1">
          <mxGeometry width="50" height="50" relative="1" as="geometry">
            <mxPoint x="-111" y="-1131.25" as="sourcePoint" />
            <mxPoint x="-108" y="-1318.25" as="targetPoint" />
          </mxGeometry>
        </mxCell>
        <mxCell id="QzPQM97rYg2r_5IAiYFt-443" value="" style="endArrow=openThin;html=1;rounded=0;endFill=0;exitX=1;exitY=0.25;exitDx=0;exitDy=0;entryX=0.038;entryY=0.686;entryDx=0;entryDy=0;entryPerimeter=0;" parent="1" source="QzPQM97rYg2r_5IAiYFt-423" target="QzPQM97rYg2r_5IAiYFt-417" edge="1">
          <mxGeometry width="50" height="50" relative="1" as="geometry">
            <mxPoint x="-211" y="-1223.25" as="sourcePoint" />
            <mxPoint x="-118" y="-1322.25" as="targetPoint" />
          </mxGeometry>
        </mxCell>
        <mxCell id="QzPQM97rYg2r_5IAiYFt-446" value="" style="rounded=1;whiteSpace=wrap;html=1;fillColor=none;" parent="1" vertex="1">
          <mxGeometry x="3988" y="-1249.75" width="531" height="190" as="geometry" />
        </mxCell>
        <mxCell id="QzPQM97rYg2r_5IAiYFt-447" style="edgeStyle=orthogonalEdgeStyle;rounded=0;orthogonalLoop=1;jettySize=auto;html=1;entryX=0;entryY=0.5;entryDx=0;entryDy=0;endArrow=openThin;endFill=0;" parent="1" source="QzPQM97rYg2r_5IAiYFt-448" target="QzPQM97rYg2r_5IAiYFt-450" edge="1">
          <mxGeometry relative="1" as="geometry">
            <mxPoint x="4165" y="-1147.25" as="targetPoint" />
          </mxGeometry>
        </mxCell>
        <mxCell id="QzPQM97rYg2r_5IAiYFt-448" value="" style="ellipse;fillStyle=solid;fillColor=#000000;" parent="1" vertex="1">
          <mxGeometry x="4070" y="-1159.25" width="24" height="24" as="geometry" />
        </mxCell>
        <mxCell id="QzPQM97rYg2r_5IAiYFt-449" value="" style="ellipse;html=1;shape=endState;fillColor=strokeColor;" parent="1" vertex="1">
          <mxGeometry x="4429" y="-1159.25" width="27" height="27" as="geometry" />
        </mxCell>
        <mxCell id="QzPQM97rYg2r_5IAiYFt-450" value="Calculatrice d&#39;interet" style="html=1;align=center;verticalAlign=top;rounded=1;absoluteArcSize=1;arcSize=10;dashed=0;whiteSpace=wrap;" parent="1" vertex="1">
          <mxGeometry x="4187" y="-1167.25" width="140" height="40" as="geometry" />
        </mxCell>
        <mxCell id="QzPQM97rYg2r_5IAiYFt-451" value="" style="endArrow=openThin;html=1;rounded=0;endFill=0;exitX=1;exitY=0.5;exitDx=0;exitDy=0;entryX=0;entryY=0.5;entryDx=0;entryDy=0;" parent="1" source="QzPQM97rYg2r_5IAiYFt-450" target="QzPQM97rYg2r_5IAiYFt-449" edge="1">
          <mxGeometry width="50" height="50" relative="1" as="geometry">
            <mxPoint x="4260" y="-1357.75" as="sourcePoint" />
            <mxPoint x="4761" y="-1357.75" as="targetPoint" />
          </mxGeometry>
        </mxCell>
        <mxCell id="QzPQM97rYg2r_5IAiYFt-454" value="" style="rounded=1;whiteSpace=wrap;html=1;fillColor=none;" parent="1" vertex="1">
          <mxGeometry x="275" y="-1185" width="662" height="277" as="geometry" />
        </mxCell>
        <mxCell id="QzPQM97rYg2r_5IAiYFt-456" value="" style="ellipse;fillStyle=solid;fillColor=#000000;" parent="1" vertex="1">
          <mxGeometry x="324" y="-1120.25" width="24" height="24" as="geometry" />
        </mxCell>
        <mxCell id="QzPQM97rYg2r_5IAiYFt-459" style="edgeStyle=orthogonalEdgeStyle;rounded=0;orthogonalLoop=1;jettySize=auto;html=1;endArrow=classicThin;endFill=1;" parent="1" source="QzPQM97rYg2r_5IAiYFt-460" target="QzPQM97rYg2r_5IAiYFt-463" edge="1">
          <mxGeometry relative="1" as="geometry" />
        </mxCell>
        <mxCell id="QzPQM97rYg2r_5IAiYFt-460" value="Choisir une voiture de la liste" style="html=1;align=center;verticalAlign=top;rounded=1;absoluteArcSize=1;arcSize=10;dashed=0;whiteSpace=wrap;" parent="1" vertex="1">
          <mxGeometry x="409" y="-1002.75" width="140" height="40" as="geometry" />
        </mxCell>
        <mxCell id="QzPQM97rYg2r_5IAiYFt-461" value="" style="ellipse;html=1;shape=endState;fillColor=strokeColor;" parent="1" vertex="1">
          <mxGeometry x="856" y="-1120.25" width="27" height="27" as="geometry" />
        </mxCell>
        <mxCell id="QzPQM97rYg2r_5IAiYFt-463" value="Sélectionner la voiture" style="html=1;align=center;verticalAlign=top;rounded=1;absoluteArcSize=1;arcSize=10;dashed=0;whiteSpace=wrap;" parent="1" vertex="1">
          <mxGeometry x="614" y="-1128.25" width="140" height="40" as="geometry" />
        </mxCell>
        <mxCell id="QzPQM97rYg2r_5IAiYFt-466" value="Filtrer les annonces" style="html=1;align=center;verticalAlign=top;rounded=1;absoluteArcSize=1;arcSize=10;dashed=0;whiteSpace=wrap;" parent="1" vertex="1">
          <mxGeometry x="409" y="-1128.25" width="140" height="40" as="geometry" />
        </mxCell>
        <mxCell id="QzPQM97rYg2r_5IAiYFt-475" style="rounded=0;orthogonalLoop=1;jettySize=auto;html=1;entryX=0;entryY=0.5;entryDx=0;entryDy=0;endArrow=classicThin;endFill=1;exitX=1;exitY=0.5;exitDx=0;exitDy=0;" parent="1" source="QzPQM97rYg2r_5IAiYFt-456" target="QzPQM97rYg2r_5IAiYFt-466" edge="1">
          <mxGeometry relative="1" as="geometry">
            <mxPoint x="441.5" y="-1103.25" as="sourcePoint" />
            <mxPoint x="355" y="-1023.75" as="targetPoint" />
          </mxGeometry>
        </mxCell>
        <mxCell id="QzPQM97rYg2r_5IAiYFt-477" style="rounded=0;orthogonalLoop=1;jettySize=auto;html=1;entryX=0.5;entryY=0;entryDx=0;entryDy=0;endArrow=classicThin;endFill=1;exitX=0.5;exitY=1;exitDx=0;exitDy=0;" parent="1" source="QzPQM97rYg2r_5IAiYFt-466" target="QzPQM97rYg2r_5IAiYFt-460" edge="1">
          <mxGeometry relative="1" as="geometry">
            <mxPoint x="355" y="-983.75" as="sourcePoint" />
            <mxPoint x="409" y="-909.75" as="targetPoint" />
          </mxGeometry>
        </mxCell>
        <mxCell id="QzPQM97rYg2r_5IAiYFt-486" value="" style="endArrow=openThin;html=1;rounded=0;endFill=0;exitX=1;exitY=0.5;exitDx=0;exitDy=0;" parent="1" source="QzPQM97rYg2r_5IAiYFt-463" edge="1">
          <mxGeometry width="50" height="50" relative="1" as="geometry">
            <mxPoint x="916" y="-1219.75" as="sourcePoint" />
            <mxPoint x="856" y="-1108" as="targetPoint" />
          </mxGeometry>
        </mxCell>
        <mxCell id="QzPQM97rYg2r_5IAiYFt-490" value="" style="rounded=1;whiteSpace=wrap;html=1;fillColor=none;" parent="1" vertex="1">
          <mxGeometry x="1399" y="-1212" width="665" height="285" as="geometry" />
        </mxCell>
        <mxCell id="QzPQM97rYg2r_5IAiYFt-491" value="" style="ellipse;fillStyle=solid;fillColor=#000000;" parent="1" vertex="1">
          <mxGeometry x="1455" y="-1130.75" width="24" height="24" as="geometry" />
        </mxCell>
        <mxCell id="QzPQM97rYg2r_5IAiYFt-494" style="edgeStyle=orthogonalEdgeStyle;rounded=0;orthogonalLoop=1;jettySize=auto;html=1;endArrow=classicThin;endFill=1;" parent="1" source="QzPQM97rYg2r_5IAiYFt-495" target="QzPQM97rYg2r_5IAiYFt-498" edge="1">
          <mxGeometry relative="1" as="geometry" />
        </mxCell>
        <mxCell id="QzPQM97rYg2r_5IAiYFt-495" value="Choisir une voiture de la liste" style="html=1;align=center;verticalAlign=top;rounded=1;absoluteArcSize=1;arcSize=10;dashed=0;whiteSpace=wrap;" parent="1" vertex="1">
          <mxGeometry x="1540" y="-1013.25" width="140" height="40" as="geometry" />
        </mxCell>
        <mxCell id="QzPQM97rYg2r_5IAiYFt-496" value="" style="ellipse;html=1;shape=endState;fillColor=strokeColor;" parent="1" vertex="1">
          <mxGeometry x="1993" y="-1133.75" width="27" height="27" as="geometry" />
        </mxCell>
        <mxCell id="QzPQM97rYg2r_5IAiYFt-497" value="" style="endArrow=openThin;html=1;rounded=0;endFill=0;exitX=1;exitY=0.5;exitDx=0;exitDy=0;entryX=0;entryY=0.5;entryDx=0;entryDy=0;" parent="1" source="QzPQM97rYg2r_5IAiYFt-498" target="QzPQM97rYg2r_5IAiYFt-496" edge="1">
          <mxGeometry width="50" height="50" relative="1" as="geometry">
            <mxPoint x="2147" y="-1138.75" as="sourcePoint" />
            <mxPoint x="1984" y="-762.75" as="targetPoint" />
          </mxGeometry>
        </mxCell>
        <mxCell id="QzPQM97rYg2r_5IAiYFt-498" value="Sélectionner la voiture" style="html=1;align=center;verticalAlign=top;rounded=1;absoluteArcSize=1;arcSize=10;dashed=0;whiteSpace=wrap;" parent="1" vertex="1">
          <mxGeometry x="1745" y="-1138.75" width="140" height="40" as="geometry" />
        </mxCell>
        <mxCell id="QzPQM97rYg2r_5IAiYFt-499" value="Rechercher voiture" style="html=1;align=center;verticalAlign=top;rounded=1;absoluteArcSize=1;arcSize=10;dashed=0;whiteSpace=wrap;" parent="1" vertex="1">
          <mxGeometry x="1540" y="-1138.75" width="140" height="40" as="geometry" />
        </mxCell>
        <mxCell id="QzPQM97rYg2r_5IAiYFt-501" style="rounded=0;orthogonalLoop=1;jettySize=auto;html=1;entryX=0;entryY=0.5;entryDx=0;entryDy=0;endArrow=classicThin;endFill=1;exitX=1;exitY=0.5;exitDx=0;exitDy=0;" parent="1" source="QzPQM97rYg2r_5IAiYFt-491" target="QzPQM97rYg2r_5IAiYFt-499" edge="1">
          <mxGeometry relative="1" as="geometry">
            <mxPoint x="1572.5" y="-1113.75" as="sourcePoint" />
            <mxPoint x="1486" y="-1034.25" as="targetPoint" />
          </mxGeometry>
        </mxCell>
        <mxCell id="QzPQM97rYg2r_5IAiYFt-502" style="rounded=0;orthogonalLoop=1;jettySize=auto;html=1;entryX=0.5;entryY=0;entryDx=0;entryDy=0;endArrow=classicThin;endFill=1;exitX=0.5;exitY=1;exitDx=0;exitDy=0;" parent="1" source="QzPQM97rYg2r_5IAiYFt-499" target="QzPQM97rYg2r_5IAiYFt-495" edge="1">
          <mxGeometry relative="1" as="geometry">
            <mxPoint x="1486" y="-994.25" as="sourcePoint" />
            <mxPoint x="1540" y="-920.25" as="targetPoint" />
          </mxGeometry>
        </mxCell>
        <mxCell id="QzPQM97rYg2r_5IAiYFt-513" value="" style="rounded=1;whiteSpace=wrap;html=1;fillColor=none;" parent="1" vertex="1">
          <mxGeometry x="-790" y="-491" width="489" height="198" as="geometry" />
        </mxCell>
        <mxCell id="QzPQM97rYg2r_5IAiYFt-514" value="" style="ellipse;fillStyle=solid;fillColor=#000000;" parent="1" vertex="1">
          <mxGeometry x="-731" y="-410.5" width="24" height="24" as="geometry" />
        </mxCell>
        <mxCell id="QzPQM97rYg2r_5IAiYFt-519" value="" style="ellipse;html=1;shape=endState;fillColor=strokeColor;" parent="1" vertex="1">
          <mxGeometry x="-388" y="-410.5" width="27" height="27" as="geometry" />
        </mxCell>
        <mxCell id="QzPQM97rYg2r_5IAiYFt-524" style="rounded=0;orthogonalLoop=1;jettySize=auto;html=1;entryX=0;entryY=0.5;entryDx=0;entryDy=0;endArrow=classicThin;endFill=1;exitX=1;exitY=0.5;exitDx=0;exitDy=0;" parent="1" source="QzPQM97rYg2r_5IAiYFt-514" edge="1">
          <mxGeometry relative="1" as="geometry">
            <mxPoint x="-666.5" y="-393.5" as="sourcePoint" />
            <mxPoint x="-616" y="-398.5" as="targetPoint" />
          </mxGeometry>
        </mxCell>
        <mxCell id="QzPQM97rYg2r_5IAiYFt-527" value="Contact nous" style="html=1;align=center;verticalAlign=top;rounded=1;absoluteArcSize=1;arcSize=10;dashed=0;whiteSpace=wrap;" parent="1" vertex="1">
          <mxGeometry x="-617.5" y="-418.5" width="140" height="40" as="geometry" />
        </mxCell>
        <mxCell id="QzPQM97rYg2r_5IAiYFt-534" value="" style="endArrow=openThin;html=1;rounded=0;endFill=0;exitX=1;exitY=0.5;exitDx=0;exitDy=0;entryX=0;entryY=0.5;entryDx=0;entryDy=0;" parent="1" source="QzPQM97rYg2r_5IAiYFt-527" target="QzPQM97rYg2r_5IAiYFt-519" edge="1">
          <mxGeometry width="50" height="50" relative="1" as="geometry">
            <mxPoint x="-82" y="-408" as="sourcePoint" />
            <mxPoint x="-79" y="-595" as="targetPoint" />
          </mxGeometry>
        </mxCell>
        <mxCell id="QzPQM97rYg2r_5IAiYFt-536" value="" style="rounded=1;whiteSpace=wrap;html=1;fillColor=none;" parent="1" vertex="1">
          <mxGeometry x="95" y="-475" width="445" height="156" as="geometry" />
        </mxCell>
        <mxCell id="QzPQM97rYg2r_5IAiYFt-537" value="" style="ellipse;fillStyle=solid;fillColor=#000000;" parent="1" vertex="1">
          <mxGeometry x="144" y="-403.5" width="24" height="24" as="geometry" />
        </mxCell>
        <mxCell id="QzPQM97rYg2r_5IAiYFt-542" value="" style="ellipse;html=1;shape=endState;fillColor=strokeColor;" parent="1" vertex="1">
          <mxGeometry x="463" y="-406.5" width="27" height="27" as="geometry" />
        </mxCell>
        <mxCell id="QzPQM97rYg2r_5IAiYFt-547" style="rounded=0;orthogonalLoop=1;jettySize=auto;html=1;entryX=0;entryY=0.5;entryDx=0;entryDy=0;endArrow=classicThin;endFill=1;exitX=1;exitY=0.5;exitDx=0;exitDy=0;" parent="1" source="QzPQM97rYg2r_5IAiYFt-537" edge="1">
          <mxGeometry relative="1" as="geometry">
            <mxPoint x="261.5" y="-386.5" as="sourcePoint" />
            <mxPoint x="229.00000000000045" y="-391.5" as="targetPoint" />
          </mxGeometry>
        </mxCell>
        <mxCell id="QzPQM97rYg2r_5IAiYFt-552" value="Lien Carfax" style="html=1;align=center;verticalAlign=top;rounded=1;absoluteArcSize=1;arcSize=10;dashed=0;whiteSpace=wrap;" parent="1" vertex="1">
          <mxGeometry x="226" y="-412" width="140" height="40" as="geometry" />
        </mxCell>
        <mxCell id="QzPQM97rYg2r_5IAiYFt-556" value="" style="endArrow=openThin;html=1;rounded=0;endFill=0;exitX=1;exitY=0.5;exitDx=0;exitDy=0;entryX=0;entryY=0.5;entryDx=0;entryDy=0;" parent="1" source="QzPQM97rYg2r_5IAiYFt-552" target="QzPQM97rYg2r_5IAiYFt-542" edge="1">
          <mxGeometry width="50" height="50" relative="1" as="geometry">
            <mxPoint x="846" y="-401" as="sourcePoint" />
            <mxPoint x="849" y="-588" as="targetPoint" />
          </mxGeometry>
        </mxCell>
        <mxCell id="QzPQM97rYg2r_5IAiYFt-559" value="" style="rounded=1;whiteSpace=wrap;html=1;fillColor=none;" parent="1" vertex="1">
          <mxGeometry x="964.5" y="-480" width="460.5" height="163" as="geometry" />
        </mxCell>
        <mxCell id="QzPQM97rYg2r_5IAiYFt-560" value="" style="ellipse;fillStyle=solid;fillColor=#000000;" parent="1" vertex="1">
          <mxGeometry x="1013.5" y="-410.5" width="24" height="24" as="geometry" />
        </mxCell>
        <mxCell id="QzPQM97rYg2r_5IAiYFt-565" value="" style="ellipse;html=1;shape=endState;fillColor=strokeColor;" parent="1" vertex="1">
          <mxGeometry x="1349.5" y="-410.5" width="27" height="27" as="geometry" />
        </mxCell>
        <mxCell id="QzPQM97rYg2r_5IAiYFt-569" value="Calculatrice d&#39;interet" style="html=1;align=center;verticalAlign=top;rounded=1;absoluteArcSize=1;arcSize=10;dashed=0;whiteSpace=wrap;" parent="1" vertex="1">
          <mxGeometry x="1098.5" y="-417" width="140" height="40" as="geometry" />
        </mxCell>
        <mxCell id="QzPQM97rYg2r_5IAiYFt-570" style="rounded=0;orthogonalLoop=1;jettySize=auto;html=1;entryX=0;entryY=0.5;entryDx=0;entryDy=0;endArrow=classicThin;endFill=1;exitX=1;exitY=0.5;exitDx=0;exitDy=0;" parent="1" source="QzPQM97rYg2r_5IAiYFt-560" edge="1">
          <mxGeometry relative="1" as="geometry">
            <mxPoint x="1131" y="-393.5" as="sourcePoint" />
            <mxPoint x="1098.5" y="-398.5" as="targetPoint" />
          </mxGeometry>
        </mxCell>
        <mxCell id="QzPQM97rYg2r_5IAiYFt-581" value="" style="endArrow=openThin;html=1;rounded=0;endFill=0;exitX=1;exitY=0.5;exitDx=0;exitDy=0;entryX=0;entryY=0.5;entryDx=0;entryDy=0;" parent="1" source="QzPQM97rYg2r_5IAiYFt-569" target="QzPQM97rYg2r_5IAiYFt-565" edge="1">
          <mxGeometry width="50" height="50" relative="1" as="geometry">
            <mxPoint x="1615.5" y="-500" as="sourcePoint" />
            <mxPoint x="1708.5" y="-599" as="targetPoint" />
          </mxGeometry>
        </mxCell>
        <mxCell id="QzPQM97rYg2r_5IAiYFt-582" value="" style="rounded=1;whiteSpace=wrap;html=1;fillColor=none;" parent="1" vertex="1">
          <mxGeometry x="1823" y="-473" width="463" height="163" as="geometry" />
        </mxCell>
        <mxCell id="QzPQM97rYg2r_5IAiYFt-583" value="" style="ellipse;fillStyle=solid;fillColor=#000000;" parent="1" vertex="1">
          <mxGeometry x="1872" y="-403.5" width="24" height="24" as="geometry" />
        </mxCell>
        <mxCell id="QzPQM97rYg2r_5IAiYFt-584" value="" style="ellipse;html=1;shape=endState;fillColor=strokeColor;" parent="1" vertex="1">
          <mxGeometry x="2209" y="-406.5" width="27" height="27" as="geometry" />
        </mxCell>
        <mxCell id="QzPQM97rYg2r_5IAiYFt-586" value="Consulter la voiture" style="html=1;align=center;verticalAlign=top;rounded=1;absoluteArcSize=1;arcSize=10;dashed=0;whiteSpace=wrap;" parent="1" vertex="1">
          <mxGeometry x="1956" y="-413" width="140" height="40" as="geometry" />
        </mxCell>
        <mxCell id="QzPQM97rYg2r_5IAiYFt-587" style="rounded=0;orthogonalLoop=1;jettySize=auto;html=1;entryX=0;entryY=0.5;entryDx=0;entryDy=0;endArrow=classicThin;endFill=1;exitX=1;exitY=0.5;exitDx=0;exitDy=0;" parent="1" source="QzPQM97rYg2r_5IAiYFt-583" edge="1">
          <mxGeometry relative="1" as="geometry">
            <mxPoint x="1989.5" y="-386.5" as="sourcePoint" />
            <mxPoint x="1957" y="-391.5" as="targetPoint" />
          </mxGeometry>
        </mxCell>
        <mxCell id="QzPQM97rYg2r_5IAiYFt-589" value="" style="endArrow=openThin;html=1;rounded=0;endFill=0;exitX=1;exitY=0.5;exitDx=0;exitDy=0;entryX=0;entryY=0.5;entryDx=0;entryDy=0;" parent="1" source="QzPQM97rYg2r_5IAiYFt-586" target="QzPQM97rYg2r_5IAiYFt-584" edge="1">
          <mxGeometry width="50" height="50" relative="1" as="geometry">
            <mxPoint x="2474" y="-493" as="sourcePoint" />
            <mxPoint x="2567" y="-592" as="targetPoint" />
          </mxGeometry>
        </mxCell>
        <mxCell id="QzPQM97rYg2r_5IAiYFt-591" value="&lt;p class=&quot;MsoNormal&quot;&gt;&lt;/p&gt;[Informations de la voiture&lt;span style=&quot;background-color: initial;&quot;&gt;]&lt;/span&gt;" style="text;html=1;align=center;verticalAlign=middle;resizable=0;points=[];autosize=1;strokeColor=none;fillColor=none;" parent="1" vertex="1">
          <mxGeometry x="-794.5" y="-1983" width="159" height="38" as="geometry" />
        </mxCell>
        <mxCell id="QzPQM97rYg2r_5IAiYFt-592" value="&lt;p class=&quot;MsoNormal&quot;&gt;&lt;/p&gt;[Informations de la voiture&lt;span style=&quot;background-color: initial;&quot;&gt;]&lt;/span&gt;" style="text;html=1;align=center;verticalAlign=middle;resizable=0;points=[];autosize=1;strokeColor=none;fillColor=none;" parent="1" vertex="1">
          <mxGeometry x="1423" y="-1180.75" width="159" height="38" as="geometry" />
        </mxCell>
      </root>
    </mxGraphModel>
  </diagram>
</mxfile>
